<svg xmlns="http://www.w3.org/2000/svg" xmlns:xlink="http://www.w3.org/1999/xlink" width="100" zoomAndPan="magnify" viewBox="0 0 75 74.999997" height="100" preserveAspectRatio="xMidYMid meet" version="1.0"><defs><g/><clipPath id="2ba1c71591"><path d="M 15 36 L 25.839844 36 L 25.839844 39 L 15 39 Z M 15 36 " clip-rule="nonzero"/></clipPath><clipPath id="19ea21f96f"><path d="M 17 32.507812 L 25.839844 32.507812 L 25.839844 35 L 17 35 Z M 17 32.507812 " clip-rule="nonzero"/></clipPath><clipPath id="f9777eaa6b"><path d="M 21 34 L 25.839844 34 L 25.839844 37 L 21 37 Z M 21 34 " clip-rule="nonzero"/></clipPath><clipPath id="8206258067"><path d="M 13.089844 36 L 15 36 L 15 39 L 13.089844 39 Z M 13.089844 36 " clip-rule="nonzero"/></clipPath><clipPath id="a3a5b61e77"><path d="M 16 40 L 19 40 L 19 42.257812 L 16 42.257812 Z M 16 40 " clip-rule="nonzero"/></clipPath><clipPath id="8901ece682"><path d="M 18 38 L 25.839844 38 L 25.839844 41 L 18 41 Z M 18 38 " clip-rule="nonzero"/></clipPath><clipPath id="1f178b70a3"><path d="M 18 40 L 25.839844 40 L 25.839844 42.257812 L 18 42.257812 Z M 18 40 " clip-rule="nonzero"/></clipPath></defs><g clip-path="url(#2ba1c71591)"><path fill="#1687a7" d="M 30.433594 36.679688 L 22.132812 36.679688 L 21.78125 37.289062 L 20.960938 37.289062 L 20.605469 36.679688 C 20.300781 36.679688 16.472656 36.679688 16.167969 36.679688 L 15.707031 37.472656 L 16.167969 38.265625 C 16.472656 38.265625 20.300781 38.265625 20.605469 38.265625 L 20.960938 37.652344 L 21.78125 37.652344 L 22.132812 38.265625 L 30.433594 38.265625 C 30.523438 37.742188 30.523438 37.203125 30.433594 36.679688 Z M 30.433594 36.679688 " fill-opacity="1" fill-rule="nonzero"/></g><g clip-path="url(#19ea21f96f)"><path fill="#1687a7" d="M 19.039062 34.363281 L 19.394531 33.75 L 20.214844 33.75 L 20.570312 34.363281 L 29.316406 34.363281 C 27.671875 32.507812 25.828125 32.773438 23.605469 32.773438 L 20.570312 32.773438 L 20.214844 33.386719 L 19.394531 33.386719 L 19.039062 32.773438 L 18.125 32.773438 L 17.664062 33.566406 L 18.125 34.363281 Z M 19.039062 34.363281 " fill-opacity="1" fill-rule="nonzero"/></g><g clip-path="url(#f9777eaa6b)"><path fill="#1687a7" d="M 24.519531 35.339844 L 23.699219 35.339844 L 23.34375 34.726562 L 22.429688 34.726562 L 21.972656 35.519531 L 22.429688 36.3125 L 23.34375 36.3125 L 23.699219 35.703125 L 24.519531 35.703125 L 24.875 36.3125 L 30.355469 36.3125 C 30.207031 35.734375 29.949219 35.199219 29.609375 34.726562 L 24.875 34.726562 Z M 24.519531 35.339844 " fill-opacity="1" fill-rule="nonzero"/></g><g clip-path="url(#8206258067)"><path fill="#1687a7" d="M 13.550781 36.679688 L 13.089844 37.472656 L 13.550781 38.265625 L 14.46875 38.265625 L 14.925781 37.472656 L 14.46875 36.679688 Z M 13.550781 36.679688 " fill-opacity="1" fill-rule="nonzero"/></g><path fill="#1687a7" d="M 19.355469 35.519531 L 19.8125 36.3125 L 20.730469 36.3125 L 21.1875 35.519531 L 20.730469 34.726562 L 19.8125 34.726562 Z M 19.355469 35.519531 " fill-opacity="1" fill-rule="nonzero"/><g clip-path="url(#a3a5b61e77)"><path fill="#1687a7" d="M 16.679688 40.578125 L 16.222656 41.375 L 16.679688 42.167969 L 17.597656 42.167969 L 18.054688 41.375 L 17.597656 40.578125 Z M 16.679688 40.578125 " fill-opacity="1" fill-rule="nonzero"/></g><g clip-path="url(#8901ece682)"><path fill="#1687a7" d="M 20.605469 39.242188 L 19.785156 39.242188 L 19.429688 38.628906 L 18.515625 38.628906 L 18.054688 39.421875 L 18.515625 40.214844 L 19.429688 40.214844 L 19.785156 39.605469 L 20.605469 39.605469 L 20.960938 40.214844 L 29.605469 40.214844 C 29.949219 39.742188 30.207031 39.207031 30.351562 38.628906 C 27.484375 38.628906 23.828125 38.628906 20.957031 38.628906 Z M 20.605469 39.242188 " fill-opacity="1" fill-rule="nonzero"/></g><g clip-path="url(#1f178b70a3)"><path fill="#1687a7" d="M 22.957031 41.195312 L 22.132812 41.195312 L 21.78125 40.582031 C 20.953125 40.582031 20.125 40.582031 19.296875 40.582031 L 18.839844 41.375 L 19.296875 42.167969 C 20.125 42.167969 20.953125 42.167969 21.78125 42.167969 L 22.132812 41.554688 L 22.957031 41.554688 L 23.308594 42.167969 C 25.65625 42.167969 27.628906 42.480469 29.316406 40.578125 L 23.308594 40.578125 Z M 22.957031 41.195312 " fill-opacity="1" fill-rule="nonzero"/></g><g fill="#000000" fill-opacity="1"><g transform="translate(27.807739, 37.918357)"><g><path d="M 1.03125 0 L -0.0625 0 L 1.4375 -3.921875 L 2.546875 -3.921875 L 4.03125 0 L 2.9375 0 L 2.6875 -0.703125 L 1.296875 -0.703125 Z M 1.546875 -1.4375 L 2.4375 -1.4375 L 1.984375 -2.75 Z M 1.546875 -1.4375 "/></g></g></g><g fill="#000000" fill-opacity="1"><g transform="translate(32.91299, 37.918357)"><g><path d="M 3.359375 -0.0625 C 2.523438 0.0195312 1.835938 0.0625 1.296875 0.0625 C 0.921875 0.0625 0.644531 -0.0195312 0.46875 -0.1875 C 0.300781 -0.363281 0.21875 -0.640625 0.21875 -1.015625 L 0.21875 -2.796875 C 0.21875 -3.191406 0.304688 -3.476562 0.484375 -3.65625 C 0.660156 -3.832031 0.945312 -3.921875 1.34375 -3.921875 L 3.359375 -3.921875 L 3.359375 -3.140625 L 1.578125 -3.140625 C 1.347656 -3.140625 1.234375 -3.023438 1.234375 -2.796875 L 1.234375 -1.015625 C 1.234375 -0.921875 1.257812 -0.847656 1.3125 -0.796875 C 1.363281 -0.753906 1.425781 -0.734375 1.5 -0.734375 C 1.582031 -0.734375 1.671875 -0.734375 1.765625 -0.734375 C 1.859375 -0.734375 1.953125 -0.734375 2.046875 -0.734375 C 2.148438 -0.742188 2.253906 -0.75 2.359375 -0.75 C 2.460938 -0.75 2.59375 -0.753906 2.75 -0.765625 C 2.914062 -0.785156 3.117188 -0.800781 3.359375 -0.8125 Z M 3.359375 -0.0625 "/></g></g></g><g fill="#000000" fill-opacity="1"><g transform="translate(37.51334, 37.918357)"><g><path d="M 2.25 0 L 1.234375 0 L 1.234375 -3.140625 L 0.0625 -3.140625 L 0.0625 -3.921875 L 3.421875 -3.921875 L 3.421875 -3.140625 L 2.25 -3.140625 Z M 2.25 0 "/></g></g></g><g fill="#000000" fill-opacity="1"><g transform="translate(42.113691, 37.918357)"><g><path d="M 2.1875 0 L 0.171875 0 L 0.171875 -0.78125 L 0.671875 -0.78125 L 0.671875 -3.140625 L 0.171875 -3.140625 L 0.171875 -3.921875 L 2.1875 -3.921875 L 2.1875 -3.140625 L 1.6875 -3.140625 L 1.6875 -0.78125 L 2.1875 -0.78125 Z M 2.1875 0 "/></g></g></g><g fill="#000000" fill-opacity="1"><g transform="translate(45.592039, 37.918357)"><g><path d="M 1.984375 -1.171875 L 2.9375 -3.921875 L 4.03125 -3.921875 L 2.546875 0 L 1.4375 0 L -0.0625 -3.921875 L 1.03125 -3.921875 Z M 1.984375 -1.171875 "/></g></g></g><g fill="#000000" fill-opacity="1"><g transform="translate(50.69729, 37.918357)"><g><path d="M 2.1875 0 L 0.171875 0 L 0.171875 -0.78125 L 0.671875 -0.78125 L 0.671875 -3.140625 L 0.171875 -3.140625 L 0.171875 -3.921875 L 2.1875 -3.921875 L 2.1875 -3.140625 L 1.6875 -3.140625 L 1.6875 -0.78125 L 2.1875 -0.78125 Z M 2.1875 0 "/></g></g></g><g fill="#000000" fill-opacity="1"><g transform="translate(54.17564, 37.918357)"><g><path d="M 2.25 0 L 1.234375 0 L 1.234375 -3.140625 L 0.0625 -3.140625 L 0.0625 -3.921875 L 3.421875 -3.921875 L 3.421875 -3.140625 L 2.25 -3.140625 Z M 2.25 0 "/></g></g></g><g fill="#000000" fill-opacity="1"><g transform="translate(58.77599, 37.918357)"><g><path d="M -0.109375 -3.921875 L 0.953125 -3.921875 L 1.875 -2.015625 L 2.796875 -3.921875 L 3.875 -3.921875 L 2.390625 -1.03125 L 2.390625 0 L 1.375 0 L 1.375 -1.03125 Z M -0.109375 -3.921875 "/></g></g></g><g fill="#000000" fill-opacity="1"><g transform="translate(36.838341, 41.432087)"><g/></g></g><g fill="#000000" fill-opacity="1"><g transform="translate(38.996717, 41.432087)"><g><path d="M 1.5 -1.421875 L 0.609375 -0.359375 L 1.5 -0.359375 L 1.5 0 L 0.046875 0 L 0.046875 -0.359375 L 0.9375 -1.421875 L 0.046875 -1.421875 L 0.046875 -1.78125 L 1.5 -1.78125 Z M 1.5 -1.421875 "/></g></g></g><g fill="#000000" fill-opacity="1"><g transform="translate(41.943107, 41.432087)"><g><path d="M 1.296875 -1.296875 C 1.296875 -1.398438 1.242188 -1.453125 1.140625 -1.453125 L 0.71875 -1.453125 C 0.613281 -1.453125 0.5625 -1.398438 0.5625 -1.296875 L 0.5625 -0.484375 C 0.5625 -0.378906 0.613281 -0.328125 0.71875 -0.328125 L 1.140625 -0.328125 C 1.242188 -0.328125 1.296875 -0.378906 1.296875 -0.484375 Z M 1.75 -0.484375 C 1.75 -0.304688 1.707031 -0.175781 1.625 -0.09375 C 1.550781 -0.0078125 1.425781 0.03125 1.25 0.03125 L 0.609375 0.03125 C 0.429688 0.03125 0.300781 -0.0078125 0.21875 -0.09375 C 0.144531 -0.175781 0.109375 -0.304688 0.109375 -0.484375 L 0.109375 -1.296875 C 0.109375 -1.472656 0.144531 -1.601562 0.21875 -1.6875 C 0.300781 -1.769531 0.429688 -1.8125 0.609375 -1.8125 L 1.25 -1.8125 C 1.425781 -1.8125 1.550781 -1.769531 1.625 -1.6875 C 1.707031 -1.601562 1.75 -1.472656 1.75 -1.296875 Z M 1.75 -0.484375 "/></g></g></g><g fill="#000000" fill-opacity="1"><g transform="translate(45.194773, 41.432087)"><g><path d="M 1.703125 0 L 1.21875 0 L 0.609375 -1.0625 L 0.609375 0 L 0.15625 0 L 0.15625 -1.78125 L 0.640625 -1.78125 L 1.25 -0.71875 L 1.25 -1.78125 L 1.703125 -1.78125 Z M 1.703125 0 "/></g></g></g><g fill="#000000" fill-opacity="1"><g transform="translate(48.446439, 41.432087)"><g><path d="M 1.5625 0 L 0.15625 0 L 0.15625 -1.78125 L 1.5625 -1.78125 L 1.5625 -1.421875 L 0.609375 -1.421875 L 0.609375 -1.078125 L 1.359375 -1.078125 L 1.359375 -0.71875 L 0.609375 -0.71875 L 0.609375 -0.359375 L 1.5625 -0.359375 Z M 1.5625 0 "/></g></g></g><path stroke-linecap="round" transform="matrix(0, 0.75, -0.75, 0, 26.411815, 31.851559)" fill="none" stroke-linejoin="miter" d="M 0.500005 0.502212 L 14.567714 0.502212 " stroke="#1687a7" stroke-width="1" stroke-opacity="1" stroke-miterlimit="4"/></svg>