<svg xmlns="http://www.w3.org/2000/svg" width="48" height="48" viewBox="0 0 48 48" fill="none"><path fill-rule="evenodd" clip-rule="evenodd" d="M19.7583 8.69871H29.9507V10.3977H29.9505V12.0964V13.7952V15.4936H22.4277H19.7583V8.69871ZM25.9868 17.1923H22.4277H19.7583H18.0596V15.4936V8.69871V7H19.7583H29.9507H31.6494V8.69871V10.3977H37.6201H39.5766L38.6059 12.0964L36.6645 15.4939L38.6059 18.8914L39.5766 20.5901H37.6201H27.6856H25.9868V18.8914V17.1926V17.1923ZM31.6492 17.1923V17.1926H29.9505H27.6856V18.8914H36.6495L35.1896 16.3367L34.708 15.4939L35.1896 14.6511L36.6495 12.0964H31.6494V15.4936V17.1923H31.6492Z" fill="#00372A"></path><line x1="18.9089" y1="16.0605" x2="18.9089" y2="36.4452" stroke="#00372A" stroke-width="1.69871"></line><path d="M35.0468 38.4007V34.437C35.0468 29.7461 31.2441 25.9434 26.5532 25.9434V25.9434C21.8623 25.9434 18.0596 29.7461 18.0596 34.437V40.6656H19.1921H27.6857" stroke="#00372A" stroke-width="1.69871"></path><path d="M9 35.5695C9 32.1295 11.7887 29.3408 15.2287 29.3408C18.6686 29.3408 21.4573 32.1295 21.4573 35.5695V40.6657H9V35.5695Z" fill="white" stroke="#00372A" stroke-width="1.69871"></path><path d="M35.6134 40.666H33.9147M32.216 40.666H29.3848" stroke="#21B592" stroke-width="1.69871"></path></svg>