<svg xmlns="http://www.w3.org/2000/svg" xmlns:xlink="http://www.w3.org/1999/xlink" width="1024" zoomAndPan="magnify" viewBox="0 0 768 576" height="768" preserveAspectRatio="xMidYMid meet" version="1.0"><defs><clipPath id="4c58b80df2"><path d="M 252.261719 172.800781 L 515.511719 172.800781 L 515.511719 403.050781 L 252.261719 403.050781 Z M 252.261719 172.800781 " clip-rule="nonzero"/></clipPath></defs><g clip-path="url(#4c58b80df2)"><path fill="#1687a7" d="M 503.269531 401.753906 L 460.898438 371.550781 C 459.136719 370.289062 457.222656 369.324219 455.15625 368.664062 C 453.089844 368.003906 450.972656 367.675781 448.804688 367.679688 L 355.699219 367.679688 C 354.726562 367.675781 353.753906 367.628906 352.785156 367.53125 C 351.816406 367.4375 350.855469 367.292969 349.898438 367.101562 C 348.945312 366.910156 348 366.675781 347.070312 366.390625 C 346.140625 366.109375 345.222656 365.78125 344.324219 365.40625 C 343.425781 365.035156 342.546875 364.617188 341.6875 364.160156 C 340.828125 363.699219 339.996094 363.199219 339.1875 362.65625 C 338.378906 362.117188 337.597656 361.539062 336.84375 360.917969 C 336.089844 360.300781 335.371094 359.648438 334.683594 358.960938 C 333.992188 358.273438 333.339844 357.550781 332.722656 356.800781 C 332.105469 356.046875 331.527344 355.265625 330.984375 354.457031 C 330.445312 353.648438 329.945312 352.8125 329.484375 351.953125 C 329.027344 351.097656 328.609375 350.21875 328.238281 349.316406 C 327.863281 348.417969 327.535156 347.503906 327.253906 346.570312 C 326.96875 345.640625 326.734375 344.699219 326.542969 343.742188 C 326.351562 342.789062 326.207031 341.828125 326.113281 340.859375 C 326.015625 339.890625 325.964844 338.917969 325.964844 337.945312 L 325.964844 331.050781 C 325.964844 330.546875 326.015625 330.046875 326.113281 329.546875 C 326.210938 329.054688 326.359375 328.570312 326.550781 328.105469 C 326.746094 327.636719 326.984375 327.191406 327.265625 326.773438 C 327.546875 326.351562 327.863281 325.960938 328.222656 325.605469 C 328.578125 325.246094 328.96875 324.925781 329.386719 324.648438 C 329.808594 324.367188 330.25 324.128906 330.71875 323.933594 C 331.1875 323.742188 331.667969 323.59375 332.164062 323.496094 C 332.660156 323.394531 333.160156 323.347656 333.667969 323.347656 C 334.171875 323.347656 334.671875 323.394531 335.167969 323.496094 C 335.664062 323.59375 336.144531 323.742188 336.613281 323.933594 C 337.082031 324.128906 337.523438 324.367188 337.945312 324.648438 C 338.363281 324.929688 338.753906 325.246094 339.109375 325.605469 C 339.464844 325.964844 339.785156 326.351562 340.066406 326.773438 C 340.347656 327.195312 340.582031 327.636719 340.777344 328.105469 C 340.96875 328.574219 341.113281 329.054688 341.210938 329.550781 C 341.308594 330.046875 341.359375 330.546875 341.359375 331.054688 L 341.359375 337.945312 C 341.359375 338.886719 341.453125 339.820312 341.636719 340.742188 C 341.820312 341.664062 342.09375 342.558594 342.453125 343.425781 C 342.816406 344.296875 343.257812 345.121094 343.78125 345.902344 C 344.300781 346.683594 344.898438 347.410156 345.5625 348.074219 C 346.226562 348.738281 346.949219 349.332031 347.730469 349.855469 C 348.515625 350.375 349.339844 350.820312 350.207031 351.179688 C 351.078125 351.539062 351.972656 351.8125 352.894531 351.996094 C 353.816406 352.179688 354.75 352.273438 355.691406 352.273438 L 448.820312 352.273438 C 452.59375 352.269531 456.273438 352.847656 459.867188 354 C 463.457031 355.152344 466.789062 356.828125 469.851562 359.027344 L 500.023438 380.527344 L 500.023438 262.265625 C 500.023438 261.324219 499.929688 260.394531 499.746094 259.472656 C 499.5625 258.550781 499.289062 257.652344 498.929688 256.785156 C 498.570312 255.914062 498.128906 255.089844 497.605469 254.308594 C 497.082031 253.523438 496.488281 252.800781 495.824219 252.136719 C 495.160156 251.46875 494.433594 250.875 493.652344 250.355469 C 492.871094 249.832031 492.046875 249.390625 491.175781 249.03125 C 490.308594 248.671875 489.410156 248.398438 488.488281 248.214844 C 487.566406 248.03125 486.636719 247.9375 485.695312 247.9375 L 465.125 247.9375 C 464.621094 247.9375 464.121094 247.886719 463.625 247.789062 C 463.128906 247.691406 462.648438 247.542969 462.179688 247.347656 C 461.710938 247.15625 461.269531 246.917969 460.847656 246.636719 C 460.429688 246.355469 460.039062 246.035156 459.679688 245.679688 C 459.324219 245.320312 459.003906 244.929688 458.722656 244.511719 C 458.441406 244.089844 458.203125 243.648438 458.011719 243.179688 C 457.816406 242.714844 457.671875 242.230469 457.570312 241.734375 C 457.472656 241.238281 457.425781 240.738281 457.421875 240.234375 C 457.421875 239.726562 457.472656 239.226562 457.570312 238.730469 C 457.671875 238.234375 457.816406 237.753906 458.011719 237.285156 C 458.203125 236.820312 458.441406 236.375 458.722656 235.953125 C 459.003906 235.535156 459.324219 235.144531 459.679688 234.789062 C 460.039062 234.429688 460.425781 234.109375 460.847656 233.828125 C 461.269531 233.550781 461.710938 233.3125 462.179688 233.117188 C 462.644531 232.925781 463.128906 232.777344 463.625 232.679688 C 464.121094 232.582031 464.621094 232.53125 465.125 232.53125 L 485.695312 232.53125 C 486.671875 232.535156 487.640625 232.582031 488.609375 232.679688 C 489.578125 232.777344 490.539062 232.921875 491.496094 233.113281 C 492.449219 233.300781 493.390625 233.539062 494.324219 233.824219 C 495.253906 234.105469 496.171875 234.433594 497.070312 234.808594 C 497.96875 235.179688 498.847656 235.597656 499.703125 236.058594 C 500.5625 236.515625 501.398438 237.015625 502.207031 237.558594 C 503.015625 238.101562 503.796875 238.679688 504.546875 239.296875 C 505.300781 239.914062 506.019531 240.570312 506.707031 241.257812 C 507.394531 241.945312 508.046875 242.667969 508.667969 243.417969 C 509.285156 244.171875 509.863281 244.953125 510.402344 245.761719 C 510.945312 246.570312 511.445312 247.40625 511.902344 248.265625 C 512.363281 249.125 512.777344 250 513.152344 250.902344 C 513.523438 251.800781 513.851562 252.714844 514.132812 253.648438 C 514.417969 254.578125 514.652344 255.523438 514.84375 256.476562 C 515.035156 257.429688 515.179688 258.390625 515.273438 259.359375 C 515.371094 260.328125 515.417969 261.300781 515.417969 262.273438 L 515.417969 395.492188 C 515.417969 396.515625 515.222656 397.5 514.824219 398.449219 C 514.429688 399.394531 513.871094 400.230469 513.140625 400.949219 C 512.414062 401.671875 511.578125 402.226562 510.632812 402.617188 C 509.683594 403.003906 508.699219 403.195312 507.675781 403.191406 C 506.054688 403.183594 504.582031 402.707031 503.269531 401.753906 Z M 252.574219 335.75 L 252.574219 202.527344 C 252.574219 201.554688 252.625 200.585938 252.71875 199.617188 C 252.816406 198.648438 252.960938 197.6875 253.152344 196.734375 C 253.339844 195.777344 253.578125 194.835938 253.859375 193.90625 C 254.144531 192.972656 254.472656 192.058594 254.84375 191.160156 C 255.21875 190.261719 255.632812 189.382812 256.09375 188.523438 C 256.550781 187.664062 257.050781 186.832031 257.59375 186.023438 C 258.132812 185.214844 258.714844 184.433594 259.332031 183.679688 C 259.949219 182.929688 260.601562 182.207031 261.289062 181.519531 C 261.976562 180.832031 262.695312 180.179688 263.449219 179.5625 C 264.199219 178.945312 264.980469 178.363281 265.789062 177.824219 C 266.597656 177.28125 267.433594 176.78125 268.289062 176.324219 C 269.148438 175.863281 270.027344 175.449219 270.925781 175.074219 C 271.824219 174.703125 272.738281 174.375 273.671875 174.089844 C 274.601562 173.808594 275.542969 173.570312 276.5 173.378906 C 277.453125 173.1875 278.414062 173.042969 279.382812 172.949219 C 280.351562 172.851562 281.324219 172.804688 282.296875 172.800781 L 434.332031 172.800781 C 434.835938 172.800781 435.335938 172.851562 435.832031 172.949219 C 436.328125 173.046875 436.808594 173.191406 437.277344 173.386719 C 437.742188 173.578125 438.1875 173.816406 438.609375 174.097656 C 439.027344 174.375 439.417969 174.695312 439.773438 175.050781 C 440.132812 175.410156 440.453125 175.796875 440.734375 176.21875 C 441.015625 176.636719 441.25 177.082031 441.445312 177.546875 C 441.640625 178.015625 441.785156 178.496094 441.886719 178.992188 C 441.984375 179.488281 442.035156 179.988281 442.035156 180.492188 L 442.035156 278.21875 C 442.03125 279.191406 441.984375 280.160156 441.886719 281.128906 C 441.792969 282.097656 441.648438 283.058594 441.457031 284.015625 C 441.265625 284.96875 441.03125 285.910156 440.746094 286.84375 C 440.464844 287.773438 440.136719 288.6875 439.761719 289.589844 C 439.390625 290.488281 438.972656 291.367188 438.515625 292.222656 C 438.054688 293.082031 437.554688 293.917969 437.015625 294.726562 C 436.476562 295.535156 435.894531 296.316406 435.277344 297.066406 C 434.660156 297.820312 434.007812 298.539062 433.320312 299.226562 C 432.632812 299.917969 431.910156 300.570312 431.160156 301.1875 C 430.40625 301.804688 429.625 302.382812 428.820312 302.925781 C 428.007812 303.464844 427.175781 303.964844 426.316406 304.425781 C 425.457031 304.886719 424.582031 305.300781 423.683594 305.675781 C 422.78125 306.046875 421.867188 306.375 420.9375 306.660156 C 420.007812 306.941406 419.0625 307.179688 418.109375 307.371094 C 417.15625 307.5625 416.195312 307.707031 415.222656 307.800781 C 414.257812 307.898438 413.285156 307.949219 412.3125 307.949219 L 319.183594 307.949219 C 317.015625 307.945312 314.898438 308.273438 312.832031 308.9375 C 310.765625 309.597656 308.851562 310.558594 307.085938 311.820312 L 264.71875 342.023438 C 263.394531 342.980469 261.914062 343.460938 260.28125 343.460938 C 259.777344 343.460938 259.273438 343.410156 258.777344 343.3125 C 258.28125 343.214844 257.800781 343.066406 257.335938 342.871094 C 256.867188 342.679688 256.421875 342.441406 256.003906 342.160156 C 255.582031 341.878906 255.191406 341.558594 254.835938 341.203125 C 254.476562 340.84375 254.15625 340.453125 253.878906 340.035156 C 253.59375 339.613281 253.359375 339.167969 253.164062 338.703125 C 252.96875 338.234375 252.824219 337.753906 252.726562 337.257812 C 252.625 336.761719 252.578125 336.261719 252.578125 335.753906 Z M 267.980469 202.527344 L 267.980469 320.792969 L 298.144531 299.296875 C 301.210938 297.097656 304.539062 295.421875 308.132812 294.269531 C 311.726562 293.113281 315.410156 292.539062 319.183594 292.542969 L 412.308594 292.542969 C 413.25 292.542969 414.179688 292.449219 415.101562 292.265625 C 416.023438 292.082031 416.917969 291.808594 417.789062 291.449219 C 418.65625 291.089844 419.480469 290.648438 420.265625 290.125 C 421.046875 289.601562 421.769531 289.007812 422.433594 288.34375 C 423.097656 287.679688 423.691406 286.957031 424.214844 286.175781 C 424.738281 285.394531 425.179688 284.566406 425.539062 283.699219 C 425.902344 282.828125 426.171875 281.933594 426.355469 281.011719 C 426.542969 280.089844 426.632812 279.15625 426.632812 278.21875 L 426.632812 188.199219 L 282.300781 188.199219 C 281.359375 188.203125 280.429688 188.292969 279.507812 188.480469 C 278.585938 188.664062 277.691406 188.9375 276.820312 189.296875 C 275.953125 189.660156 275.128906 190.101562 274.347656 190.621094 C 273.566406 191.144531 272.84375 191.738281 272.179688 192.40625 C 271.511719 193.070312 270.921875 193.792969 270.398438 194.574219 C 269.875 195.359375 269.433594 196.183594 269.074219 197.050781 C 268.714844 197.917969 268.441406 198.816406 268.257812 199.738281 C 268.074219 200.660156 267.984375 201.589844 267.984375 202.53125 Z M 307.953125 266.089844 C 307.445312 266.089844 306.945312 266.039062 306.449219 265.941406 C 305.953125 265.84375 305.472656 265.695312 305.003906 265.5 C 304.539062 265.308594 304.09375 265.070312 303.675781 264.789062 C 303.253906 264.507812 302.867188 264.191406 302.507812 263.832031 C 302.152344 263.476562 301.832031 263.085938 301.550781 262.667969 C 301.269531 262.246094 301.035156 261.800781 300.839844 261.335938 C 300.648438 260.867188 300.5 260.386719 300.402344 259.890625 C 300.304688 259.394531 300.253906 258.894531 300.253906 258.390625 C 300.253906 257.882812 300.304688 257.382812 300.402344 256.890625 C 300.5 256.394531 300.648438 255.910156 300.839844 255.445312 C 301.035156 254.980469 301.269531 254.535156 301.550781 254.117188 C 301.832031 253.695312 302.152344 253.308594 302.507812 252.949219 C 302.867188 252.59375 303.253906 252.273438 303.675781 251.992188 C 304.09375 251.710938 304.539062 251.476562 305.007812 251.28125 C 305.472656 251.089844 305.953125 250.941406 306.449219 250.84375 C 306.945312 250.746094 307.445312 250.695312 307.953125 250.695312 L 396.933594 250.695312 C 397.4375 250.695312 397.9375 250.746094 398.433594 250.847656 C 398.929688 250.945312 399.410156 251.089844 399.875 251.285156 C 400.34375 251.480469 400.785156 251.714844 401.207031 251.996094 C 401.625 252.277344 402.015625 252.597656 402.371094 252.953125 C 402.726562 253.3125 403.046875 253.699219 403.328125 254.121094 C 403.609375 254.539062 403.84375 254.984375 404.039062 255.449219 C 404.230469 255.917969 404.378906 256.398438 404.476562 256.894531 C 404.574219 257.390625 404.625 257.890625 404.625 258.394531 C 404.621094 258.898438 404.574219 259.398438 404.472656 259.894531 C 404.375 260.390625 404.230469 260.871094 404.035156 261.335938 C 403.84375 261.804688 403.605469 262.246094 403.324219 262.667969 C 403.042969 263.085938 402.726562 263.472656 402.367188 263.832031 C 402.011719 264.1875 401.625 264.507812 401.203125 264.789062 C 400.785156 265.070312 400.339844 265.304688 399.875 265.5 C 399.40625 265.691406 398.925781 265.839844 398.433594 265.9375 C 397.9375 266.039062 397.4375 266.085938 396.933594 266.089844 Z M 307.953125 230.148438 C 307.445312 230.148438 306.945312 230.097656 306.449219 230 C 305.953125 229.902344 305.472656 229.753906 305.003906 229.5625 C 304.539062 229.367188 304.09375 229.128906 303.675781 228.847656 C 303.257812 228.566406 302.867188 228.25 302.507812 227.890625 C 302.152344 227.535156 301.832031 227.144531 301.550781 226.726562 C 301.269531 226.304688 301.035156 225.863281 300.839844 225.394531 C 300.648438 224.929688 300.5 224.445312 300.402344 223.949219 C 300.304688 223.453125 300.253906 222.953125 300.253906 222.449219 C 300.253906 221.945312 300.304688 221.441406 300.402344 220.949219 C 300.5 220.453125 300.648438 219.972656 300.839844 219.503906 C 301.035156 219.039062 301.269531 218.59375 301.550781 218.175781 C 301.832031 217.753906 302.152344 217.367188 302.507812 217.007812 C 302.867188 216.652344 303.253906 216.332031 303.675781 216.050781 C 304.09375 215.773438 304.539062 215.535156 305.003906 215.339844 C 305.472656 215.148438 305.953125 215 306.449219 214.902344 C 306.945312 214.804688 307.445312 214.753906 307.953125 214.753906 L 396.933594 214.753906 C 397.4375 214.757812 397.9375 214.804688 398.433594 214.902344 C 398.925781 215.003906 399.40625 215.148438 399.875 215.339844 C 400.339844 215.535156 400.785156 215.773438 401.207031 216.054688 C 401.625 216.332031 402.011719 216.652344 402.371094 217.011719 C 402.726562 217.367188 403.046875 217.757812 403.324219 218.175781 C 403.605469 218.597656 403.84375 219.039062 404.039062 219.507812 C 404.230469 219.972656 404.375 220.453125 404.476562 220.949219 C 404.574219 221.445312 404.625 221.945312 404.625 222.449219 C 404.625 222.953125 404.574219 223.453125 404.476562 223.949219 C 404.378906 224.445312 404.230469 224.925781 404.039062 225.394531 C 403.84375 225.859375 403.609375 226.304688 403.328125 226.722656 C 403.046875 227.144531 402.726562 227.53125 402.371094 227.890625 C 402.015625 228.25 401.625 228.566406 401.207031 228.847656 C 400.785156 229.128906 400.34375 229.367188 399.875 229.558594 C 399.410156 229.753906 398.929688 229.898438 398.433594 230 C 397.9375 230.097656 397.4375 230.148438 396.933594 230.148438 Z M 307.953125 230.148438 " fill-opacity="1" fill-rule="nonzero"/></g></svg>