<?xml version="1.0" encoding="utf-8"?>
<!-- Generator: Adobe Illustrator 28.0.0, SVG Export Plug-In . SVG Version: 6.00 Build 0)  -->
<svg version="1.1" id="Layer_1" xmlns="http://www.w3.org/2000/svg" xmlns:xlink="http://www.w3.org/1999/xlink" x="0px" y="0px"
	 viewBox="0 0 1000 1000" style="enable-background:new 0 0 1000 1000;" xml:space="preserve">
<style type="text/css">
	.st0{fill:#066E43;}
</style>
<g>
	<g>
		<path class="st0" d="M172,243.43v284.92h284.92V243.43H172z M383.38,377.29c15.48,20.38,24.08,35.29,24.08,35.29
			c-5.29,9.26-11.22,19.16-17.77,29.71c0,0-9.53-15.97-26.55-38.37c-8.58-11.28-30.56-36.45-30.89-36.81
			c0.02,0.5-0.02,109.91,0.05,120.23l-0.06-0.02c0,0.04,0,0.1,0,0.13h-35.62c0.07-10.32,0.04-119.85,0.05-120.35
			c-0.33,0.36-22.31,25.53-30.89,36.81c-17.02,22.4-26.55,38.37-26.55,38.37c-6.55-10.55-12.48-20.45-17.77-29.71
			c0,0,8.6-14.91,24.08-35.29c6.84-9,23.37-27.69,27.5-32.33c-11.73,2.16-22.65,4.96-30.8,7.66c-7.86,2.6-13.86,5.17-17.8,7.02
			c-3.74,1.75-5.75,2.88-5.75,2.88c2.46-9.6,5.24-18.29,8.4-25.86c0,0,1.88-1.33,5.4-3.4c3.68-2.15,9.29-5.12,16.63-8.06
			c7.76-3.11,17.48-6.19,28.59-8.49c-0.32-0.23-7.34-5.9-10.11-7.68c-12.79-8.26-17.83-5.59-17.83-5.59
			c6.37-4.59,12.8-8.3,19.17-10.96c0,0,0.99-0.58,2.91-1.04c2.04-0.49,5.31-0.75,9.57,0.07c4.78,0.92,18.5,7.35,18.73,7.48
			c0.02-0.21,0.66-6.37,0.88-8.55c0.66-6.39,2.07-6,3.19-6.1h20.46c1.12,0.1,2.53-0.29,3.19,6.1c0.22,2.18,0.87,8.35,0.88,8.55
			c0.23-0.13,13.95-6.56,18.73-7.48c4.26-0.82,7.52-0.56,9.57-0.07c1.92,0.46,2.91,1.04,2.91,1.04c6.37,2.65,12.8,6.36,19.17,10.96
			c0,0-5.03-2.67-17.83,5.59c-2.77,1.79-9.79,7.45-10.11,7.68c11.1,2.29,20.83,5.38,28.59,8.49c7.34,2.94,12.95,5.91,16.63,8.06
			c3.53,2.06,5.4,3.4,5.4,3.4c3.16,7.58,5.94,16.27,8.4,25.86c0,0-2-1.12-5.75-2.88c-3.93-1.84-9.94-4.41-17.8-7.02
			c-8.14-2.7-19.07-5.5-30.8-7.66C360.02,349.6,376.55,368.3,383.38,377.29z"/>
		<g>
			<path class="st0" d="M370.92,555.98l23.31,25.63h62.7v-16.16h-37.58c-1.66,2.86-4.73,4.8-8.27,4.8c-5.3,0-9.6-4.3-9.6-9.6
				c0-5.3,4.3-9.6,9.6-9.6c3.64,0,6.77,2.05,8.4,5.04h37.45v-9.07H172v8.96H370.92z"/>
			<path class="st0" d="M390.09,590.98l-23.31-25.63H172v13.94h40.28c1.63-2.99,4.76-5.04,8.4-5.04c5.3,0,9.6,4.3,9.6,9.6
				s-4.3,9.6-9.6,9.6c-3.55,0-6.61-1.94-8.27-4.8H172v16.68h58.64l27.99-26.16h81.9c1.63-2.99,4.76-5.04,8.4-5.04
				c5.3,0,9.6,4.3,9.6,9.6c0,5.3-4.3,9.6-9.6,9.6c-3.55,0-6.61-1.94-8.27-4.8h-78.33l-27.99,26.16H172v9.06h284.92v-32.78H390.09z
				 M437.86,617.42c-3.55,0-6.61-1.95-8.27-4.81H279.46c-1.66,2.86-4.73,4.81-8.27,4.81c-5.3,0-9.6-4.3-9.6-9.6s4.3-9.6,9.6-9.6
				c3.64,0,6.77,2.05,8.4,5.04h149.88c1.63-2.99,4.76-5.04,8.4-5.04c5.3,0,9.6,4.3,9.6,9.6S443.17,617.42,437.86,617.42z"/>
		</g>
		<g>
			<g>
				<rect x="179" y="636.28" class="st0" width="7.75" height="7.29"/>
				<rect x="190.75" y="636.28" class="st0" width="7.75" height="7.29"/>
				<rect x="341.25" y="687.18" class="st0" width="7.75" height="7.29"/>
				<rect x="353.01" y="687.18" class="st0" width="7.75" height="7.29"/>
				<rect x="381.8" y="643.57" class="st0" width="7.81" height="7.22"/>
				<rect x="408.87" y="637.41" class="st0" width="7.75" height="7.23"/>
				<rect x="420.68" y="637.41" class="st0" width="7.75" height="7.23"/>
				<path class="st0" d="M448.18,655.57v13.89c0,4.09-1.5,6.16-4.44,6.16h-4.43h-1.13h-3.93c-2.69,0-4.38-0.19-5.13-0.5
					c2.69-3.08,4.06-6.54,4.06-10.3c0-1.57-0.25-3.21-0.75-4.78c-1.94-6.1-7.13-9.93-13.81-9.93c-6.56,0-11.81,3.83-13.81,9.93
					c-0.5,1.57-0.75,3.2-0.75,4.78c0,3.77,1.38,7.22,4.06,10.3c-0.69,0.31-2.38,0.5-5.13,0.5h-3.51h-2.18h-8.07
					c0.69-1.95,1.06-4.02,1.06-6.35v-13.7h-8.81v14.01c0,4.02-1.5,6.03-4.44,6.03h-5.68h-0.07h-10.66c0.69-1.95,1-4.02,1-6.35v-13.7
					h-8.81v14.01c0,4.02-1.44,6.03-4.38,6.03h-4.88h-0.87h-11.51h-1h-11.38h-1h-11.38h-1h-55.85h-1H237.2h-1h-11.38h-1h-11.32h-1.06
					H208c-4.25,0-6.38-2.26-6.38-6.41v-19.79c-11.12,0-16.69,0-16.69,0.06c-8.25,0-12.94,6.03-12.94,15.4
					c0,8.67,4.81,15.21,12.31,15.21c4.31,0,7.31-1.32,8.88-3.77c2,5.15,5.5,7.73,10.5,7.73h7.76h1.06h11.32h1h11.38h1h11.38h1h55.85
					h1h11.38h1h11.38h1h11.51h0.87h27.73h0.07h25.93h2.18h3.51c6.06,0,11.25-0.75,15.63-2.32c4.38,1.57,9.56,2.32,15.63,2.32h3.93
					h1.13h6.31c3.62,0,6.5-1.26,8.56-3.83c1.81-2.2,2.75-4.97,2.75-8.3v-16.34H448.18z M192.63,664.18c0,5.15-2.25,8.61-5.94,8.61
					c-3.5,0-6-3.64-6-8.04c0-4.9,2.62-8.86,6.19-8.86h5.75V664.18z M421.68,671.4c-1.06,0.75-2.06,1.38-3.06,1.88
					c-1-0.5-2-1.13-3-1.88c-2.44-1.76-3.62-4.15-3.62-7.23c0-1.95,0.56-3.64,1.62-5.03c1.31-1.44,2.94-2.2,5-2.2
					c4.19,0,6.69,3.27,6.69,7.22C425.3,667.26,424.12,669.64,421.68,671.4z"/>
				<rect x="448.55" y="643.57" class="st0" width="7.81" height="7.22"/>
				<rect x="436.8" y="643.57" class="st0" width="7.75" height="7.22"/>
			</g>
			<g>
				<rect x="190.82" y="702.19" class="st0" width="7.72" height="7.25"/>
				<rect x="179.12" y="702.19" class="st0" width="7.72" height="7.25"/>
				<rect x="260" y="752.78" class="st0" width="7.8" height="7.23"/>
				<rect x="248.3" y="752.78" class="st0" width="7.72" height="7.23"/>
				<g>
					<path class="st0" d="M192.69,729.91c0,5.12-2.23,8.56-5.91,8.56c-3.49,0-5.98-3.62-5.98-7.99c0-4.88,2.61-8.81,6.16-8.81h5.73
						V729.91z M259.64,735.16c0,4.06-1.5,6.11-4.43,6.11h-3.79h-40.66h-2.74c-4.24,0-6.36-2.24-6.36-6.36v-19.68
						c-11.1,0-16.63,0-16.63,0.06c-8.23,0-12.91,6-12.91,15.31c0,8.61,4.8,15.11,12.28,15.11c4.3,0,7.29-1.31,8.85-3.75
						c1.99,5.11,5.48,7.67,10.47,7.67h7.04h40.66h5.66c3.61,0,6.47-1.25,8.54-3.8c1.8-2.19,2.74-4.94,2.74-8.25v-16.23h-8.72V735.16
						z"/>
					<path class="st0" d="M292.65,722.55c-2.3-0.81-6.16-1.18-11.65-1.18v7.3c11.08,0,15.82,3.87,15.82,12.63h-22.61v8.37h31.33
						v-8.43C305.54,731.79,301.12,725.55,292.65,722.55"/>
					<path class="st0" d="M383.05,732.04c-1.44,1.3-2.8,2.3-4.05,2.87c-1.44-1.69-2.75-2.94-3.87-3.75
						c-1.12-0.81-2.62-1.69-4.48-2.51c2.43-1.18,4.92-1.74,7.41-1.74c2.56,0,5.16,0.68,7.85,2.06
						C385.34,729.92,384.36,730.91,383.05,732.04 M330.64,741.29h-5.05c-3.24,0-5.36-2.69-5.36-6.24c0-3.31,1.75-5.87,5.05-5.87
						c3.17,0,5.36,2.37,5.36,6.05V741.29z M448.08,735.66c0,3.75-1.5,5.63-4.43,5.63h-5.53c0.68-1.88,1.05-4,1.05-6.31v-13.62h-8.72
						v14.3c0,3.75-1.49,5.63-4.42,5.63h-5.55c0.68-1.88,1.05-4,1.05-6.31v-13.62h-8.78v13.93c0,1.69-0.12,2.74-0.37,3.24
						c-0.68,1.82-2.05,2.75-4.05,2.75h-4.48h-3.36h-10.84c-1.99,0-3.54-0.5-4.67-1.57c2.25-1.36,4.61-3.49,7.17-6.42
						c2.31-2.69,3.87-4.94,4.55-6.62c-5.92-4.57-12.33-6.87-19.25-6.87c-5.79,0-11.58,1.69-17.25,5.06v7.18
						c2.43,0.44,4.98,1.49,7.59,3.12c2.18,1.38,3.8,2.69,4.74,4c-2.31,1.43-5.05,2.12-8.1,2.12h-11.39h-7.74h-5.92v-5.69
						c0-8.3-5.84-14.3-13.82-14.3c-8.3,0-14.15,5.69-14.15,14.12c0,8.3,5.98,14.24,14.15,14.24c2.92,0,4.66-0.13,5.36-0.37
						c-0.69,2.43-2.68,3.68-6.05,3.68h-0.74v6.99h0.94c8.48,0,13.2-3.44,14.2-10.3h6.04h7.74h11.52c2.56,0,5.11-0.44,7.73-1.25
						c2.43-0.82,4.35-1.88,5.86-3.13c2.8,2.94,6.04,4.38,9.66,4.38h12.7h3.36h40.12c3.11,0,5.92-1.13,8.35-3.31
						c3.06-2.75,4.55-6.57,4.55-11.43v-13.56h-8.78V735.66z"/>
				</g>
			</g>
		</g>
	</g>
	<g>
		<g>
			<path class="st0" d="M543.08,239.76v284.92H828V239.76H543.08z M754.46,373.62c15.48,20.38,24.08,35.29,24.08,35.29
				c-5.29,9.26-11.22,19.16-17.77,29.71c0,0-9.53-15.97-26.55-38.37c-8.58-11.28-30.56-36.45-30.89-36.81
				c0.02,0.5-0.02,109.91,0.05,120.23l-0.06-0.02c0,0.04,0,0.1,0,0.13H667.7c0.07-10.32,0.04-119.85,0.05-120.35
				c-0.33,0.36-22.31,25.53-30.89,36.81c-17.02,22.4-26.55,38.37-26.55,38.37c-6.55-10.55-12.48-20.45-17.77-29.71
				c0,0,8.6-14.91,24.08-35.29c6.84-9,23.37-27.69,27.5-32.33c-11.73,2.16-22.65,4.96-30.8,7.66c-7.86,2.6-13.86,5.17-17.8,7.02
				c-3.74,1.75-5.75,2.88-5.75,2.88c2.46-9.6,5.24-18.29,8.4-25.86c0,0,1.88-1.33,5.4-3.4c3.68-2.15,9.29-5.12,16.63-8.06
				c7.76-3.11,17.48-6.19,28.59-8.49c-0.32-0.23-7.34-5.9-10.11-7.68c-12.79-8.26-17.83-5.59-17.83-5.59
				c6.37-4.59,12.8-8.3,19.17-10.96c0,0,0.99-0.58,2.91-1.04c2.04-0.49,5.31-0.75,9.57,0.07c4.78,0.92,18.5,7.35,18.73,7.48
				c0.02-0.21,0.66-6.37,0.88-8.55c0.66-6.39,2.07-6,3.19-6.1h20.46c1.12,0.1,2.53-0.29,3.19,6.1c0.22,2.18,0.87,8.35,0.88,8.55
				c0.23-0.13,13.95-6.56,18.73-7.48c4.26-0.82,7.52-0.56,9.57-0.07c1.92,0.46,2.91,1.04,2.91,1.04c6.37,2.65,12.8,6.36,19.17,10.96
				c0,0-5.03-2.67-17.83,5.59c-2.77,1.79-9.79,7.45-10.11,7.68c11.1,2.29,20.83,5.38,28.59,8.49c7.34,2.94,12.95,5.91,16.63,8.06
				c3.53,2.06,5.4,3.4,5.4,3.4c3.16,7.58,5.94,16.27,8.4,25.86c0,0-2-1.12-5.75-2.88c-3.93-1.84-9.94-4.41-17.8-7.02
				c-8.14-2.7-19.07-5.5-30.8-7.66C731.09,345.93,747.62,364.62,754.46,373.62z"/>
			<g>
				<path class="st0" d="M741.99,552.31l23.31,25.63H828v-16.16h-37.58c-1.66,2.86-4.73,4.8-8.27,4.8c-5.3,0-9.6-4.3-9.6-9.6
					s4.3-9.6,9.6-9.6c3.64,0,6.77,2.05,8.4,5.04H828v-9.07H543.08v8.96H741.99z"/>
				<path class="st0" d="M761.16,587.3l-23.31-25.63H543.08v13.94h40.28c1.63-2.99,4.76-5.04,8.4-5.04c5.3,0,9.6,4.3,9.6,9.6
					c0,5.3-4.3,9.6-9.6,9.6c-3.55,0-6.61-1.94-8.27-4.8h-40.4v16.68h58.64l27.99-26.16h81.9c1.63-2.99,4.76-5.04,8.4-5.04
					c5.3,0,9.6,4.3,9.6,9.6c0,5.3-4.3,9.6-9.6,9.6c-3.55,0-6.61-1.94-8.27-4.8h-78.33l-27.99,26.16h-62.34v9.06H828V587.3H761.16z
					 M808.94,613.74c-3.55,0-6.61-1.95-8.27-4.81H650.53c-1.66,2.86-4.73,4.81-8.27,4.81c-5.3,0-9.6-4.3-9.6-9.6s4.3-9.6,9.6-9.6
					c3.64,0,6.77,2.05,8.4,5.04h149.88c1.63-2.99,4.76-5.04,8.4-5.04c5.3,0,9.6,4.3,9.6,9.6S814.24,613.74,808.94,613.74z"/>
			</g>
		</g>
		<path class="st0" d="M543.08,239.76v284.59h284.6V239.76H543.08z M754.22,373.46c15.46,20.35,24.06,35.25,24.06,35.25
			c-5.29,9.24-11.21,19.14-17.75,29.67c0,0-9.52-15.95-26.52-38.32c-8.57-11.27-30.52-36.4-30.86-36.77
			c0.02,0.5-0.02,109.78,0.05,120.09l-0.06-0.02c0,0.04,0,0.1,0,0.13h-35.58c0.07-10.31,0.04-119.72,0.05-120.21
			c-0.33,0.36-22.29,25.5-30.86,36.77c-17,22.37-26.52,38.32-26.52,38.32c-6.54-10.53-12.47-20.43-17.75-29.67
			c0,0,8.59-14.9,24.06-35.25c6.83-8.99,23.34-27.66,27.47-32.3c-11.72,2.15-22.63,4.95-30.76,7.65c-7.85,2.6-13.85,5.17-17.78,7.01
			c-3.74,1.75-5.74,2.87-5.74,2.87c2.45-9.59,5.23-18.27,8.39-25.83c0,0,1.87-1.33,5.4-3.39c3.67-2.15,9.28-5.12,16.61-8.05
			c7.75-3.11,17.46-6.19,28.55-8.48c-0.32-0.23-7.34-5.89-10.1-7.67c-12.78-8.25-17.81-5.59-17.81-5.59
			c6.36-4.59,12.78-8.29,19.15-10.94c0,0,0.99-0.58,2.91-1.04c2.04-0.49,5.3-0.75,9.56,0.07c4.77,0.92,18.48,7.34,18.71,7.47
			c0.02-0.21,0.66-6.36,0.88-8.54c0.66-6.38,2.06-5.99,3.18-6.09h20.43c1.12,0.1,2.52-0.29,3.18,6.09c0.22,2.18,0.87,8.34,0.88,8.54
			c0.23-0.13,13.94-6.55,18.71-7.47c4.26-0.82,7.52-0.56,9.56-0.07c1.92,0.46,2.91,1.04,2.91,1.04c6.36,2.65,12.79,6.36,19.15,10.94
			c0,0-5.03-2.66-17.81,5.59c-2.76,1.78-9.78,7.44-10.1,7.67c11.09,2.29,20.81,5.37,28.55,8.48c7.33,2.94,12.93,5.9,16.61,8.05
			c3.52,2.06,5.4,3.39,5.4,3.39c3.16,7.57,5.94,16.25,8.39,25.83c0,0-2-1.12-5.74-2.87c-3.93-1.84-9.93-4.41-17.78-7.01
			c-8.13-2.7-19.04-5.5-30.76-7.65C730.88,345.81,747.39,364.48,754.22,373.46z"/>
		<g>
			<g>
				<path class="st0" d="M576.44,650.07c-1.58-1.28-3.15-2.23-4.73-2.84c-1.58-0.62-3.1-0.92-4.58-0.92c-1.87,0-3.4,0.44-4.58,1.33
					c-1.18,0.89-1.77,2.05-1.77,3.47c0,0.99,0.3,1.8,0.89,2.44c0.59,0.64,1.37,1.2,2.33,1.66c0.96,0.47,2.04,0.88,3.25,1.22
					c1.21,0.35,2.4,0.72,3.59,1.11c4.73,1.58,8.19,3.69,10.38,6.32c2.19,2.64,3.29,6.07,3.29,10.31c0,2.86-0.48,5.44-1.44,7.76
					s-2.36,4.3-4.21,5.95c-1.85,1.65-4.11,2.93-6.8,3.85c-2.69,0.91-5.73,1.37-9.13,1.37c-7.05,0-13.57-2.09-19.58-6.28l6.21-11.68
					c2.17,1.92,4.31,3.35,6.43,4.28c2.12,0.94,4.21,1.4,6.28,1.4c2.36,0,4.13-0.54,5.28-1.62c1.16-1.08,1.74-2.32,1.74-3.69
					c0-0.84-0.15-1.56-0.44-2.18c-0.3-0.62-0.79-1.18-1.48-1.7c-0.69-0.52-1.59-1-2.7-1.44c-1.11-0.44-2.45-0.94-4.03-1.48
					c-1.87-0.59-3.71-1.24-5.51-1.96c-1.8-0.72-3.4-1.66-4.8-2.85c-1.41-1.18-2.54-2.67-3.4-4.47c-0.86-1.8-1.29-4.08-1.29-6.84
					c0-2.76,0.45-5.26,1.37-7.5c0.91-2.24,2.19-4.16,3.84-5.76c1.65-1.6,3.67-2.85,6.06-3.73c2.39-0.89,5.06-1.33,8.02-1.33
					c2.76,0,5.64,0.38,8.65,1.15c3.01,0.76,5.89,1.88,8.65,3.36L576.44,650.07z"/>
				<path class="st0" d="M637.92,681.85h-20.69l-3.33,9.68h-15.45l21.21-55.72h15.81l21.21,55.72h-15.45L637.92,681.85z
					 M634.08,670.84l-6.5-18.55l-6.5,18.55H634.08z"/>
				<path class="st0" d="M687.22,635.81v30.3c0,1.62,0.06,3.29,0.18,4.99c0.12,1.7,0.49,3.24,1.11,4.62
					c0.61,1.38,1.59,2.5,2.92,3.36c1.33,0.86,3.2,1.29,5.62,1.29s4.27-0.43,5.58-1.29c1.31-0.86,2.28-1.98,2.92-3.36
					c0.64-1.38,1.02-2.92,1.15-4.62c0.12-1.7,0.18-3.36,0.18-4.99v-30.3h14.41v32.3c0,8.67-1.98,15-5.95,18.99
					c-3.97,3.99-10.06,5.99-18.29,5.99c-8.23,0-14.34-2-18.33-5.99c-3.99-3.99-5.99-10.32-5.99-18.99v-32.3H687.22z"/>
				<path class="st0" d="M744.19,635.81h21.43c3.79,0,7.35,0.76,10.68,2.29c3.33,1.53,6.23,3.56,8.72,6.1
					c2.49,2.54,4.45,5.49,5.88,8.87c1.43,3.37,2.14,6.91,2.14,10.61c0,3.64-0.7,7.16-2.11,10.53c-1.4,3.37-3.35,6.34-5.84,8.91
					c-2.49,2.56-5.39,4.61-8.72,6.13c-3.33,1.53-6.91,2.29-10.75,2.29h-21.43V635.81z M758.68,679.26h3.33
					c2.51,0,4.75-0.39,6.73-1.18c1.97-0.79,3.63-1.87,4.99-3.25c1.35-1.38,2.39-3.02,3.1-4.92c0.71-1.9,1.07-3.98,1.07-6.24
					c0-2.22-0.37-4.29-1.11-6.21c-0.74-1.92-1.79-3.57-3.14-4.95c-1.36-1.38-3.02-2.46-4.99-3.25c-1.97-0.79-4.19-1.18-6.65-1.18
					h-3.33V679.26z"/>
				<path class="st0" d="M828,635.81v55.72h-14.49v-55.72H828z"/>
			</g>
		</g>
		<g>
			<path class="st0" d="M564.73,718.62v35.67h-11.89v-35.67h-9.77v-10.07h31.42v10.07H564.73z"/>
			<path class="st0" d="M613.68,718.62h-14.13v7.64h13.35v10.07h-13.35v7.89h14.13v10.07h-26.02v-45.74h26.02V718.62z"/>
			<path class="st0" d="M663.06,723.84c-2.75-3.36-6.15-5.04-10.19-5.04c-1.78,0-3.43,0.33-4.94,0.97
				c-1.52,0.65-2.82,1.53-3.91,2.64c-1.09,1.11-1.95,2.44-2.58,3.97c-0.63,1.54-0.94,3.19-0.94,4.97c0,1.82,0.31,3.5,0.94,5.04
				c0.63,1.53,1.5,2.87,2.61,4c1.11,1.13,2.42,2.02,3.91,2.67c1.5,0.65,3.11,0.97,4.85,0.97c3.8,0,7.22-1.62,10.25-4.85v14.07
				l-1.21,0.42c-1.82,0.65-3.52,1.12-5.1,1.43c-1.58,0.3-3.13,0.45-4.67,0.45c-3.16,0-6.18-0.6-9.07-1.79
				c-2.89-1.19-5.44-2.87-7.64-5.04c-2.2-2.16-3.97-4.73-5.31-7.7c-1.34-2.97-2-6.22-2-9.73c0-3.52,0.66-6.74,1.97-9.68
				c1.31-2.93,3.07-5.46,5.28-7.58c2.2-2.12,4.76-3.78,7.67-4.97c2.91-1.19,5.96-1.79,9.16-1.79c1.82,0,3.61,0.19,5.37,0.58
				c1.76,0.38,3.61,0.98,5.55,1.79V723.84z"/>
			<path class="st0" d="M692.3,726.21h17.17v-17.65h11.89v45.74h-11.89v-18.86H692.3v18.86h-11.89v-45.74h11.89V726.21z"/>
		</g>
	</g>
</g>
</svg>
