<?xml version="1.0" encoding="utf-8"?>
<!-- Generator: Adobe Illustrator 28.0.0, SVG Export Plug-In . SVG Version: 6.00 Build 0)  -->
<svg version="1.1" id="Layer_1" xmlns="http://www.w3.org/2000/svg" xmlns:xlink="http://www.w3.org/1999/xlink" x="0px" y="0px"
	 viewBox="0 0 1000 1000" style="enable-background:new 0 0 1000 1000;" xml:space="preserve">
<style type="text/css">
	.st0{fill:#066E43;}
	.st1{fill:none;stroke:#B13078;stroke-width:0.4214;}
</style>
<g>
	<g>
		<g>
			<g>
				<rect x="153" y="398.22" class="st0" width="13.28" height="12.49"/>
				<rect x="173.13" y="398.22" class="st0" width="13.28" height="12.49"/>
				<rect x="399.53" y="485.44" class="st0" width="13.28" height="12.49"/>
				<rect x="419.67" y="485.44" class="st0" width="13.28" height="12.49"/>
				<rect x="469" y="410.71" class="st0" width="13.39" height="12.38"/>
				<rect x="515.39" y="400.16" class="st0" width="13.28" height="12.39"/>
				<rect x="535.64" y="400.16" class="st0" width="13.28" height="12.39"/>
				<path class="st0" d="M582.75,431.28v23.8c0,7-2.57,10.55-7.6,10.55h-7.59h-1.94h-6.73c-4.61,0-7.5-0.32-8.78-0.86
					c4.61-5.28,6.96-11.2,6.96-17.66c0-2.7-0.43-5.49-1.28-8.19c-3.32-10.45-12.21-17.02-23.67-17.02
					c-11.25,0-20.24,6.57-23.67,17.02c-0.86,2.69-1.29,5.49-1.29,8.19c0,6.46,2.36,12.38,6.96,17.66c-1.18,0.54-4.07,0.86-8.78,0.86
					h-6.01h-3.74h-13.83c1.18-3.34,1.82-6.89,1.82-10.88v-23.47h-15.1v24.01c0,6.89-2.57,10.34-7.6,10.34h-9.73h-0.13h-18.27
					c1.18-3.34,1.71-6.89,1.71-10.88v-23.47h-15.1v24.01c0,6.89-2.46,10.34-7.5,10.34h-8.36H402h-15.22h-1.71h-17.25h-1.71h-17.25
					h-1.71h-73.2h-1.71h-19.5h-1.71h-19.5h-1.71h-19.4h-1.81h-5.9c-7.28,0-10.93-3.87-10.93-10.98v-33.91c-19.06,0-28.6,0-28.6,0.1
					c-14.14,0-22.17,10.34-22.17,26.38c0,14.86,8.25,26.06,21.1,26.06c7.39,0,12.53-2.26,15.21-6.46c3.43,8.83,9.43,13.24,18,13.24
					h13.29h1.81h19.4h1.71h19.5h1.71h19.5h1.71h73.2h1.71h17.25h1.71h17.25h1.71H402h1.5h47.52h0.13h44.44h3.74h6.01
					c10.39,0,19.28-1.29,26.78-3.98c7.5,2.69,16.39,3.98,26.78,3.98h6.73h1.94h10.81c6.21,0,11.14-2.15,14.67-6.56
					c3.1-3.77,4.71-8.51,4.71-14.22v-27.99H582.75z M176.35,446.03c0,8.83-3.85,14.76-10.17,14.76c-6,0-10.28-6.24-10.28-13.78
					c0-8.4,4.5-15.19,10.6-15.19h9.85V446.03z M537.35,458.41c-1.82,1.29-3.54,2.37-5.25,3.23c-1.71-0.86-3.43-1.93-5.14-3.23
					c-4.18-3.02-6.21-7.11-6.21-12.39c0-3.34,0.96-6.24,2.78-8.61c2.25-2.47,5.04-3.77,8.57-3.77c7.18,0,11.46,5.6,11.46,12.38
					C543.56,451.31,541.53,455.4,537.35,458.41z"/>
				<rect x="583.39" y="410.71" class="st0" width="13.39" height="12.38"/>
				<rect x="563.26" y="410.71" class="st0" width="13.28" height="12.38"/>
			</g>
			<g>
				<rect x="173.25" y="511.17" class="st0" width="13.23" height="12.42"/>
				<rect x="153.21" y="511.17" class="st0" width="13.23" height="12.42"/>
				<rect x="269.3" y="597.86" class="st0" width="13.36" height="12.4"/>
				<rect x="249.25" y="597.86" class="st0" width="13.23" height="12.4"/>
				<g>
					<path class="st0" d="M176.46,558.67c0,8.78-3.83,14.67-10.12,14.67c-5.99,0-10.25-6.2-10.25-13.7
						c0-8.36,4.47-15.09,10.56-15.09h9.81V558.67z M268.67,567.67c0,6.95-2.57,10.48-7.59,10.48h-6.49h-47.17h-4.69
						c-7.26,0-10.89-3.84-10.89-10.9v-33.73c-19.01,0-28.5,0-28.5,0.11c-14.11,0-22.12,10.28-22.12,26.23
						c0,14.76,8.23,25.9,21.04,25.9c7.37,0,12.5-2.25,15.16-6.42c3.41,8.76,9.4,13.15,17.93,13.15h12.06h47.17h9.7
						c6.18,0,11.09-2.14,14.63-6.51c3.08-3.75,4.69-8.47,4.69-14.14v-27.82h-14.94V567.67z"/>
					<path class="st0" d="M325.24,546.05c-3.94-1.39-10.56-2.03-19.96-2.03v12.51c18.99,0,27.11,6.64,27.11,21.64h-38.75v14.34
						h53.69v-14.45C347.34,561.89,339.77,551.19,325.24,546.05"/>
					<path class="st0" d="M471.15,562.33c-2.46,2.23-4.8,3.95-6.93,4.92c-2.46-2.89-4.71-5.03-6.62-6.42
						c-1.91-1.39-4.49-2.89-7.68-4.3c4.16-2.03,8.43-2.98,12.7-2.98c4.38,0,8.85,1.17,13.45,3.53
						C475.09,558.69,473.39,560.39,471.15,562.33 M390.34,578.17h-8.65c-5.55,0-9.18-4.61-9.18-10.7c0-5.67,2.99-10.06,8.65-10.06
						c5.44,0,9.18,4.06,9.18,10.37V578.17z M582.58,568.53c0,6.42-2.57,9.64-7.59,9.64h-9.48c1.17-3.22,1.8-6.86,1.8-10.81v-23.34
						h-14.94v24.51c0,6.42-2.55,9.64-7.57,9.64h-9.51c1.17-3.22,1.8-6.86,1.8-10.81v-23.34h-15.05v23.87c0,2.89-0.2,4.7-0.64,5.56
						c-1.17,3.11-3.52,4.72-6.93,4.72h-7.68h-5.77h-18.57c-3.41,0-6.07-0.86-8.01-2.69c3.85-2.34,7.9-5.98,12.28-11.01
						c3.96-4.61,6.62-8.47,7.79-11.34c-10.14-7.83-21.13-11.78-32.99-11.78c-9.92,0-19.85,2.89-29.55,8.67v12.31
						c4.16,0.75,8.54,2.56,13.01,5.34c3.74,2.36,6.51,4.61,8.12,6.86c-3.96,2.45-8.65,3.64-13.89,3.64H428.7h-13.27h-10.14v-9.75
						c0-14.23-10.01-24.51-23.68-24.51c-14.22,0-24.25,9.75-24.25,24.2c0,14.23,10.25,24.4,24.25,24.4c5,0,7.99-0.22,9.18-0.64
						c-1.19,4.17-4.6,6.31-10.36,6.31h-1.28v11.98h1.61c14.52,0,22.62-5.89,24.34-17.65h10.34h13.27h10.74
						c4.38,0,8.76-0.75,13.25-2.14c4.16-1.41,7.46-3.22,10.03-5.36c4.8,5.03,10.34,7.5,16.55,7.5h21.76h5.77h68.75
						c5.33,0,10.14-1.94,14.3-5.67c5.24-4.72,7.79-11.25,7.79-19.59v-23.23h-15.05V568.53z"/>
				</g>
			</g>
		</g>
		<g>
			<path class="st0" d="M644.18,398.27v214.82H859V398.27H644.18z M803.55,499.2c11.67,15.36,18.16,26.61,18.16,26.61
				c-3.99,6.98-8.46,14.45-13.4,22.4c0,0-7.19-12.04-20.02-28.93c-6.47-8.51-23.04-27.48-23.29-27.75
				c0.01,0.37-0.01,82.87,0.04,90.65l-0.04-0.01c0,0.03,0,0.07,0,0.1h-26.86c0.05-7.78,0.03-90.36,0.04-90.74
				c-0.25,0.27-16.82,19.25-23.29,27.75c-12.84,16.89-20.02,28.93-20.02,28.93c-4.94-7.95-9.41-15.42-13.4-22.4
				c0,0,6.49-11.24,18.16-26.61c5.15-6.78,17.62-20.88,20.73-24.38c-8.84,1.62-17.08,3.74-23.22,5.77
				c-5.92,1.96-10.45,3.9-13.42,5.29c-2.82,1.32-4.33,2.17-4.33,2.17c1.85-7.24,3.95-13.79,6.33-19.5c0,0,1.41-1,4.07-2.56
				c2.77-1.62,7.01-3.86,12.54-6.08c5.85-2.34,13.18-4.67,21.55-6.4c-0.24-0.18-5.54-4.44-7.62-5.79
				c-9.65-6.23-13.44-4.22-13.44-4.22c4.8-3.46,9.65-6.26,14.45-8.26c0,0,0.75-0.44,2.2-0.78c1.54-0.37,4-0.57,7.21,0.05
				c3.6,0.69,13.95,5.54,14.12,5.64c0.01-0.16,0.5-4.8,0.67-6.45c0.5-4.82,1.56-4.52,2.4-4.6h15.42c0.85,0.07,1.9-0.22,2.4,4.6
				c0.17,1.65,0.65,6.29,0.67,6.45c0.18-0.1,10.52-4.94,14.12-5.64c3.21-0.62,5.67-0.42,7.21-0.05c1.45,0.35,2.2,0.78,2.2,0.78
				c4.8,2,9.65,4.8,14.45,8.26c0,0-3.8-2.01-13.44,4.22c-2.09,1.35-7.38,5.62-7.62,5.79c8.37,1.73,15.7,4.06,21.55,6.4
				c5.53,2.22,9.76,4.46,12.54,6.08c2.66,1.56,4.07,2.56,4.07,2.56c2.38,5.71,4.48,12.26,6.33,19.5c0,0-1.51-0.85-4.33-2.17
				c-2.96-1.39-7.49-3.33-13.42-5.29c-6.14-2.04-14.37-4.15-23.22-5.77C785.94,478.32,798.4,492.41,803.55,499.2z"/>
			<g>
				<path class="st0" d="M794.15,633.92l17.58,19.32H859v-12.18h-28.33c-1.25,2.16-3.56,3.62-6.24,3.62c-4,0-7.24-3.24-7.24-7.24
					s3.24-7.24,7.24-7.24c2.75,0,5.11,1.55,6.33,3.8H859v-6.84H644.18v6.76H794.15z"/>
				<path class="st0" d="M808.61,660.31l-17.58-19.32H644.18v10.51h30.37c1.23-2.25,3.59-3.8,6.33-3.8c4,0,7.24,3.24,7.24,7.24
					s-3.24,7.24-7.24,7.24c-2.67,0-4.98-1.47-6.24-3.62h-30.46v12.57h44.21l21.11-19.72h61.75c1.23-2.25,3.59-3.8,6.33-3.8
					c4,0,7.24,3.24,7.24,7.24c0,4-3.24,7.24-7.24,7.24c-2.67,0-4.98-1.47-6.24-3.62h-59.06l-21.11,19.72h-47v6.83H859v-24.72H808.61
					z M844.63,680.24c-2.67,0-4.98-1.47-6.24-3.62H725.2c-1.25,2.16-3.56,3.62-6.24,3.62c-4,0-7.24-3.24-7.24-7.24
					s3.24-7.24,7.24-7.24c2.75,0,5.11,1.55,6.33,3.8h113c1.23-2.25,3.59-3.8,6.33-3.8c4,0,7.24,3.24,7.24,7.24
					S848.63,680.24,844.63,680.24z"/>
			</g>
		</g>
	</g>
	<path class="st1" d="M858.81,314.98v1.85"/>
</g>
</svg>
