<?xml version="1.0" encoding="utf-8"?>
<!-- Generator: Adobe Illustrator 28.0.0, SVG Export Plug-In . SVG Version: 6.00 Build 0)  -->
<svg version="1.1" id="Layer_1" xmlns="http://www.w3.org/2000/svg" xmlns:xlink="http://www.w3.org/1999/xlink" x="0px" y="0px"
	 viewBox="0 0 1000 1000" style="enable-background:new 0 0 1000 1000;" xml:space="preserve">
<style type="text/css">
	.st0{fill:#066E43;}
</style>
<g>
	<g>
		<path class="st0" d="M487.97,372.79c-2.82-2.3-5.64-3.99-8.47-5.09c-2.82-1.1-5.55-1.67-8.2-1.67c-3.35,0-6.08,0.79-8.2,2.38
			c-2.12,1.59-3.18,3.67-3.18,6.22c0,1.77,0.53,3.24,1.59,4.38c1.06,1.14,2.45,2.14,4.17,2.97c1.72,0.83,3.66,1.57,5.82,2.18
			c2.17,0.61,4.31,1.28,6.42,1.98c8.46,2.83,14.67,6.6,18.59,11.33c3.92,4.71,5.89,10.86,5.89,18.44c0,5.11-0.87,9.76-2.58,13.89
			c-1.72,4.16-4.24,7.68-7.54,10.65c-3.3,2.93-7.36,5.24-12.16,6.86c-4.81,1.63-10.26,2.45-16.34,2.45
			c-12.61,0-24.29-3.73-35.06-11.23l11.11-20.9c3.88,3.44,7.72,5.99,11.51,7.66c3.78,1.69,7.53,2.53,11.24,2.53
			c4.23,0,7.38-0.98,9.45-2.91c2.08-1.94,3.12-4.16,3.12-6.62c0-1.49-0.27-2.79-0.8-3.89c-0.53-1.1-1.41-2.12-2.65-3.06
			c-1.23-0.92-2.84-1.77-4.83-2.56c-1.99-0.8-4.39-1.67-7.21-2.65c-3.35-1.06-6.63-2.22-9.85-3.5c-3.22-1.28-6.09-2.97-8.6-5.09
			c-2.51-2.12-4.54-4.79-6.09-8c-1.54-3.22-2.31-7.29-2.31-12.24c0-4.93,0.82-9.41,2.45-13.42c1.63-4.01,3.92-7.43,6.88-10.31
			c2.95-2.87,6.56-5.09,10.84-6.68c4.28-1.59,9.06-2.38,14.35-2.38c4.94,0,10.1,0.69,15.48,2.06c5.38,1.36,10.53,3.36,15.47,6.01
			L487.97,372.79z"/>
		<path class="st0" d="M579.42,429.59h-37.17l-5.97,17.37h-27.74l38.09-100.08h28.4l38.09,100.08h-27.74L579.42,429.59z
			 M572.51,409.8l-11.67-33.32l-11.68,33.32H572.51z"/>
		<path class="st0" d="M646.51,346.89v54.43c0,2.9,0.11,5.91,0.34,8.95c0.21,3.04,0.88,5.83,1.99,8.3c1.1,2.47,2.85,4.48,5.23,6.03
			c2.39,1.55,5.75,2.33,10.09,2.33c4.34,0,7.68-0.78,10.02-2.33c2.34-1.55,4.09-3.56,5.25-6.03c1.14-2.47,1.83-5.25,2.05-8.3
			c0.22-3.04,0.34-6.05,0.34-8.95v-54.43h25.88v58.01c0,15.58-3.57,26.94-10.68,34.12c-7.12,7.15-18.08,10.73-32.86,10.73
			c-14.78,0-25.74-3.58-32.91-10.73c-7.17-7.18-10.75-18.54-10.75-34.12v-58.01H646.51z"/>
		<path class="st0" d="M728.66,346.89h38.49c6.82,0,13.2,1.39,19.18,4.13c5.97,2.74,11.19,6.38,15.65,10.94
			c4.47,4.56,7.98,9.87,10.55,15.94c2.57,6.05,3.85,12.41,3.85,19.03c0,6.56-1.26,12.86-3.78,18.93
			c-2.52,6.05-6.02,11.38-10.48,15.98c-4.47,4.6-9.69,8.28-15.67,11.02c-5.97,2.74-12.41,4.11-19.31,4.11h-38.49V346.89z
			 M754.67,424.93h5.98c4.5,0,8.53-0.7,12.07-2.13c3.54-1.41,6.53-3.35,8.96-5.82c2.43-2.47,4.29-5.42,5.57-8.83
			c1.29-3.41,1.93-7.15,1.93-11.22c0-3.96-0.66-7.69-1.99-11.14c-1.33-3.45-3.21-6.42-5.64-8.89c-2.43-2.47-5.42-4.44-8.96-5.84
			c-3.53-1.41-7.52-2.13-11.93-2.13h-5.98V424.93z"/>
		<rect x="832.99" y="346.89" class="st0" width="26.01" height="100.08"/>
		<g>
			<g>
				<path class="st0" d="M470.67,497.87v77.57h-25.86v-77.57h-21.24v-21.9h68.34v21.9H470.67z"/>
				<path class="st0" d="M562.62,497.87h-30.74v16.62h29.02v21.9h-29.02v17.15h30.74v21.9h-56.6v-99.48h56.6V497.87z"/>
				<path class="st0" d="M655.5,509.22c-5.98-7.3-13.37-10.95-22.16-10.95c-3.87,0-7.45,0.71-10.75,2.11
					c-3.3,1.41-6.14,3.32-8.51,5.74c-2.38,2.42-4.24,5.3-5.61,8.64c-1.36,3.35-2.04,6.95-2.04,10.82c0,3.96,0.68,7.61,2.04,10.95
					c1.36,3.34,3.25,6.25,5.67,8.71c2.42,2.46,5.26,4.4,8.51,5.8c3.25,1.41,6.77,2.11,10.55,2.11c8.27,0,15.7-3.52,22.3-10.55v30.61
					l-2.64,0.93c-3.96,1.41-7.65,2.44-11.08,3.1c-3.43,0.66-6.81,0.99-10.16,0.99c-6.86,0-13.44-1.3-19.72-3.89
					c-6.29-2.59-11.83-6.24-16.62-10.95c-4.8-4.71-8.64-10.29-11.54-16.76c-2.9-6.47-4.35-13.52-4.35-21.18s1.43-14.66,4.29-21.04
					c2.86-6.38,6.68-11.87,11.48-16.49c4.79-4.62,10.36-8.22,16.69-10.82c6.33-2.59,12.98-3.89,19.92-3.89
					c3.96,0,7.85,0.42,11.68,1.25c3.82,0.84,7.85,2.13,12.07,3.89V509.22z"/>
				<path class="st0" d="M704.58,514.37h37.34v-38.39h25.86v99.48h-25.86v-41.03h-37.34v41.03h-25.86v-99.48h25.86V514.37z"/>
			</g>
		</g>
	</g>
	<g>
		<path class="st0" d="M141,344.82v232.77h232.77V344.82H141z M313.69,454.17c12.65,16.65,19.68,28.83,19.68,28.83
			c-4.32,7.56-9.17,15.66-14.52,24.27c0,0-7.79-13.04-21.69-31.34c-7.01-9.22-24.96-29.78-25.24-30.07
			c0.01,0.4-0.01,89.79,0.04,98.22l-0.05-0.01c0,0.03,0,0.08,0,0.11h-29.1c0.06-8.43,0.03-97.92,0.04-98.32
			c-0.27,0.3-18.23,20.85-25.24,30.07c-13.91,18.3-21.69,31.34-21.69,31.34c-5.35-8.62-10.2-16.71-14.52-24.27
			c0,0,7.03-12.18,19.68-28.83c5.58-7.35,19.09-22.62,22.47-26.42c-9.58,1.76-18.51,4.05-25.16,6.26
			c-6.42,2.13-11.33,4.23-14.54,5.73c-3.06,1.43-4.69,2.35-4.69,2.35c2.01-7.84,4.28-14.94,6.86-21.13c0,0,1.53-1.09,4.41-2.77
			c3.01-1.76,7.59-4.18,13.58-6.59c6.34-2.54,14.28-5.06,23.35-6.94c-0.26-0.19-6-4.82-8.26-6.28c-10.45-6.75-14.57-4.57-14.57-4.57
			c5.2-3.75,10.46-6.78,15.66-8.95c0,0,0.81-0.47,2.38-0.85c1.67-0.4,4.33-0.62,7.82,0.06c3.9,0.75,15.11,6,15.3,6.11
			c0.01-0.17,0.54-5.2,0.72-6.99c0.54-5.22,1.69-4.9,2.6-4.98h16.71c0.92,0.08,2.06-0.24,2.6,4.98c0.18,1.78,0.71,6.82,0.72,6.99
			c0.19-0.11,11.4-5.36,15.3-6.11c3.48-0.67,6.15-0.45,7.82-0.06c1.57,0.37,2.38,0.85,2.38,0.85c5.2,2.17,10.46,5.2,15.66,8.95
			c0,0-4.11-2.18-14.57,4.57c-2.26,1.46-8,6.08-8.26,6.28c9.07,1.87,17.02,4.4,23.35,6.94c5.99,2.4,10.58,4.83,13.58,6.59
			c2.88,1.69,4.41,2.77,4.41,2.77c2.58,6.19,4.86,13.29,6.86,21.13c0,0-1.64-0.92-4.69-2.35c-3.21-1.51-8.12-3.6-14.54-5.73
			c-6.65-2.21-15.58-4.49-25.16-6.26C294.6,431.55,308.11,446.83,313.69,454.17z"/>
		<g>
			<path class="st0" d="M303.51,600.16l19.04,20.94h51.22v-13.2h-30.7c-1.36,2.34-3.86,3.93-6.76,3.93c-4.33,0-7.85-3.51-7.85-7.85
				c0-4.33,3.51-7.85,7.85-7.85c2.98,0,5.53,1.68,6.86,4.12h30.6v-7.41H141v7.32H303.51z"/>
			<path class="st0" d="M319.17,628.75l-19.04-20.94H141v11.39h32.9c1.33-2.44,3.89-4.12,6.86-4.12c4.33,0,7.85,3.51,7.85,7.85
				c0,4.33-3.51,7.85-7.85,7.85c-2.9,0-5.4-1.59-6.76-3.93H141v13.63h47.91l22.87-21.37h66.91c1.33-2.44,3.89-4.12,6.86-4.12
				c4.33,0,7.85,3.51,7.85,7.85c0,4.33-3.51,7.85-7.85,7.85c-2.9,0-5.4-1.59-6.76-3.93H214.8l-22.87,21.37H141v7.41h232.77v-26.78
				H319.17z M358.2,650.35c-2.9,0-5.4-1.59-6.76-3.93H228.79c-1.36,2.34-3.86,3.93-6.76,3.93c-4.33,0-7.85-3.51-7.85-7.85
				c0-4.33,3.51-7.85,7.85-7.85c2.98,0,5.53,1.68,6.86,4.12h122.44c1.33-2.44,3.89-4.12,6.86-4.12c4.33,0,7.85,3.51,7.85,7.85
				C366.05,646.84,362.53,650.35,358.2,650.35z"/>
		</g>
	</g>
</g>
</svg>
