<svg xmlns="http://www.w3.org/2000/svg" xmlns:xlink="http://www.w3.org/1999/xlink" width="475" zoomAndPan="magnify" viewBox="0 0 356.25 161.249994" height="215" preserveAspectRatio="xMidYMid meet" version="1.0"><defs><g/><clipPath id="8202fd6e1c"><path d="M 7.925781 1.890625 L 351.328125 1.890625 L 351.328125 126.5625 L 7.925781 126.5625 Z M 7.925781 1.890625 " clip-rule="nonzero"/></clipPath></defs><g clip-path="url(#8202fd6e1c)"><path fill="#ffffff" d="M 183.9375 120.859375 C 178.949219 115.589844 174.082031 111.949219 169.285156 109.796875 C 207.257812 78.023438 224.933594 37.777344 221.691406 22.9375 C 216.378906 57.648438 182.941406 97.59375 169.265625 109.789062 C 165.105469 107.925781 161 107.191406 156.917969 107.503906 C 168.382812 91.628906 179.304688 28.273438 172.6875 13.109375 C 177.988281 15.757812 183.519531 20.085938 192.855469 18.589844 C 181.289062 15.1875 176.945312 11.695312 167.183594 5.484375 C 177.019531 39.382812 163.753906 89.707031 156.265625 107.5625 C 153.328125 107.871094 150.40625 108.714844 147.488281 110.074219 C 147.769531 86.601562 121.027344 21.378906 104.320312 10.894531 C 114.199219 11.011719 121.457031 8.988281 130.382812 6.253906 C 136.515625 16.84375 140.679688 29.460938 143.949219 41.957031 C 142.761719 28.300781 137.523438 14.671875 132.527344 1.96875 C 119.316406 5.835938 107.535156 6.90625 94.324219 6.964844 C 124.125 32.960938 142.320312 87.863281 146.613281 110.5 C 144.71875 111.445312 142.820312 112.609375 140.925781 113.976562 C 131.820312 94.445312 74.171875 49.238281 53.855469 48.675781 C 62.425781 43.761719 66.222656 39.042969 72.519531 32.152344 C 83.179688 38.164062 99.246094 52.628906 108.410156 61.730469 C 100.449219 50.570312 82.949219 35.066406 72.191406 26.660156 C 62.777344 36.703125 53.171875 43.609375 41.820312 50.371094 C 81.667969 57.808594 126.4375 97.609375 140.53125 114.257812 C 139.414062 115.082031 138.292969 115.96875 137.167969 116.933594 C 99.621094 105.492188 61.296875 102.546875 16.132812 118.71875 C 21.011719 111.457031 22.796875 104.914062 22.917969 97.652344 C 44.097656 93.304688 68.730469 89.855469 97.539062 91.226562 C 76.160156 86.761719 46.320312 86.050781 19.703125 93.011719 C 17.476562 106.34375 13.011719 116.695312 7.921875 126.214844 C 57.511719 108.855469 99.835938 108.707031 138.953125 123.71875 C 155.136719 111.101562 170.371094 110.984375 181.796875 124.074219 C 227.734375 121.136719 305.09375 119.238281 351.03125 123.003906 C 311.027344 118.183594 233.460938 118.0625 183.9375 120.859375 Z M 183.9375 120.859375 " fill-opacity="1" fill-rule="evenodd"/></g><g fill="#ffffff" fill-opacity="1"><g transform="translate(179.664512, 68.946019)"><g><path d="M 15.21875 -11.578125 L 6.53125 -12.65625 L 6.234375 -10.171875 C 6.203125 -9.929688 6.234375 -9.707031 6.328125 -9.5 C 6.421875 -9.300781 6.585938 -9.1875 6.828125 -9.15625 C 6.921875 -9.144531 6.992188 -9.144531 7.046875 -9.15625 L 10.203125 -9.546875 C 10.523438 -9.566406 10.867188 -9.550781 11.234375 -9.5 C 12.148438 -9.382812 12.890625 -9.03125 13.453125 -8.4375 C 14.296875 -7.601562 14.640625 -6.523438 14.484375 -5.203125 L 14.171875 -2.75 C 14.023438 -1.519531 13.46875 -0.523438 12.5 0.234375 C 11.53125 0.992188 10.425781 1.296875 9.1875 1.140625 L 5.734375 0.71875 L 5.515625 0.65625 C 4.367188 0.34375 3.453125 -0.269531 2.765625 -1.1875 C 2.078125 -2.101562 1.800781 -3.128906 1.9375 -4.265625 L 2.015625 -4.921875 L 5.515625 -4.484375 L 5.4375 -3.828125 C 5.40625 -3.578125 5.460938 -3.34375 5.609375 -3.125 C 5.753906 -2.914062 5.957031 -2.796875 6.21875 -2.765625 L 9.625 -2.34375 C 9.894531 -2.3125 10.132812 -2.375 10.34375 -2.53125 C 10.550781 -2.6875 10.671875 -2.898438 10.703125 -3.171875 L 11.015625 -5.625 C 11.035156 -5.820312 11.015625 -5.929688 10.953125 -5.953125 L 10.90625 -6 C 10.882812 -6.007812 10.859375 -6.015625 10.828125 -6.015625 C 10.765625 -6.023438 10.664062 -6.019531 10.53125 -6 C 10.40625 -5.988281 10.332031 -5.984375 10.3125 -5.984375 C 8.59375 -5.804688 7.5625 -5.691406 7.21875 -5.640625 L 6.578125 -5.625 C 5.367188 -5.769531 4.382812 -6.328125 3.625 -7.296875 C 2.875 -8.273438 2.578125 -9.378906 2.734375 -10.609375 L 3.46875 -16.578125 L 15.65625 -15.0625 Z M 15.21875 -11.578125 "/></g></g></g><g fill="#ffffff" fill-opacity="1"><g transform="translate(214.437772, 115.392226)"><g><path d="M 14.25 -19.125 L 15.671875 -19.125 C 17.078125 -19.125 18.269531 -18.628906 19.25 -17.640625 C 20.238281 -16.648438 20.734375 -15.457031 20.734375 -14.0625 L 20.734375 0 L 16.75 0 L 16.75 -14.0625 C 16.75 -14.351562 16.644531 -14.597656 16.4375 -14.796875 C 16.238281 -15.003906 15.984375 -15.109375 15.671875 -15.109375 L 14.25 -15.109375 C 13.957031 -15.109375 13.703125 -15.003906 13.484375 -14.796875 C 13.273438 -14.597656 13.171875 -14.351562 13.171875 -14.0625 L 13.171875 -7 L 9.1875 -6.03125 L 9.1875 -14.0625 C 9.1875 -14.351562 9.078125 -14.597656 8.859375 -14.796875 C 8.648438 -15.003906 8.390625 -15.109375 8.078125 -15.109375 L 5.578125 -15.109375 L 5.578125 0 L 1.59375 0 L 1.59375 -19.125 L 8.078125 -19.125 C 9.171875 -19.125 10.203125 -18.773438 11.171875 -18.078125 C 12.128906 -18.773438 13.15625 -19.125 14.25 -19.125 Z M 14.25 -19.125 "/></g></g></g><g fill="#ffffff" fill-opacity="1"><g transform="translate(236.442538, 115.392226)"><g><path d="M 6.296875 -19.125 L 9.9375 -19.125 C 11.320312 -19.125 12.507812 -18.625 13.5 -17.625 C 14.488281 -16.632812 14.984375 -15.445312 14.984375 -14.0625 L 14.984375 -5.03125 C 14.984375 -3.65625 14.488281 -2.472656 13.5 -1.484375 C 12.507812 -0.492188 11.320312 0 9.9375 0 L 6.296875 0 C 4.921875 0 3.738281 -0.492188 2.75 -1.484375 C 1.757812 -2.472656 1.265625 -3.65625 1.265625 -5.03125 L 1.265625 -14.0625 C 1.265625 -15.445312 1.757812 -16.632812 2.75 -17.625 C 3.738281 -18.625 4.921875 -19.125 6.296875 -19.125 Z M 9.9375 -15.109375 L 6.296875 -15.109375 C 6.015625 -15.109375 5.769531 -15.003906 5.5625 -14.796875 C 5.351562 -14.597656 5.25 -14.351562 5.25 -14.0625 L 5.25 -5.03125 C 5.25 -4.75 5.351562 -4.503906 5.5625 -4.296875 C 5.769531 -4.085938 6.015625 -3.984375 6.296875 -3.984375 L 9.9375 -3.984375 C 10.226562 -3.984375 10.472656 -4.085938 10.671875 -4.296875 C 10.878906 -4.503906 10.984375 -4.75 10.984375 -5.03125 L 10.984375 -14.0625 C 10.984375 -14.351562 10.878906 -14.597656 10.671875 -14.796875 C 10.472656 -15.003906 10.226562 -15.109375 9.9375 -15.109375 Z M 9.9375 -15.109375 "/></g></g></g><g fill="#ffffff" fill-opacity="1"><g transform="translate(252.387247, 115.392226)"><g><path d="M 13.3125 -15.140625 L 6.625 -15.140625 C 6.34375 -15.140625 6.097656 -15.03125 5.890625 -14.8125 C 5.679688 -14.601562 5.578125 -14.351562 5.578125 -14.0625 L 5.578125 -9.96875 L 11.453125 -11.53125 L 11.453125 -7.375 L 5.578125 -5.8125 L 5.578125 0 L 1.59375 0 L 1.59375 -14.0625 C 1.59375 -15.457031 2.082031 -16.648438 3.0625 -17.640625 C 4.039062 -18.628906 5.226562 -19.125 6.625 -19.125 L 13.3125 -19.125 Z M 13.3125 -15.140625 "/></g></g></g><g fill="#ffffff" fill-opacity="1"><g transform="translate(266.985271, 115.392226)"><g><path d="M 13.28125 -15.171875 L 6.65625 -15.171875 C 6.351562 -15.171875 6.097656 -15.066406 5.890625 -14.859375 C 5.679688 -14.648438 5.578125 -14.394531 5.578125 -14.09375 L 5.578125 -10 L 11.453125 -11.5625 L 11.453125 -7.4375 L 5.578125 -5.90625 L 5.578125 -5.0625 C 5.578125 -4.78125 5.679688 -4.535156 5.890625 -4.328125 C 6.109375 -4.117188 6.363281 -4.015625 6.65625 -4.015625 L 13.3125 -4.015625 L 13.3125 0 L 6.65625 0 C 5.25 0 4.050781 -0.492188 3.0625 -1.484375 C 2.082031 -2.472656 1.59375 -3.664062 1.59375 -5.0625 L 1.59375 -14.09375 C 1.59375 -15.46875 2.082031 -16.648438 3.0625 -17.640625 C 4.039062 -18.628906 5.238281 -19.125 6.65625 -19.125 L 13.28125 -19.125 Z M 13.28125 -15.171875 "/></g></g></g><g fill="#ffffff" fill-opacity="1"><g transform="translate(281.583295, 115.392226)"><g><path d="M 13.28125 -15.171875 L 6.65625 -15.171875 C 6.351562 -15.171875 6.097656 -15.066406 5.890625 -14.859375 C 5.679688 -14.648438 5.578125 -14.394531 5.578125 -14.09375 L 5.578125 -10 L 11.453125 -11.5625 L 11.453125 -7.4375 L 5.578125 -5.90625 L 5.578125 -5.0625 C 5.578125 -4.78125 5.679688 -4.535156 5.890625 -4.328125 C 6.109375 -4.117188 6.363281 -4.015625 6.65625 -4.015625 L 13.3125 -4.015625 L 13.3125 0 L 6.65625 0 C 5.25 0 4.050781 -0.492188 3.0625 -1.484375 C 2.082031 -2.472656 1.59375 -3.664062 1.59375 -5.0625 L 1.59375 -14.09375 C 1.59375 -15.46875 2.082031 -16.648438 3.0625 -17.640625 C 4.039062 -18.628906 5.238281 -19.125 6.65625 -19.125 L 13.28125 -19.125 Z M 13.28125 -15.171875 "/></g></g></g><g fill="#ffffff" fill-opacity="1"><g transform="translate(296.181319, 115.392226)"><g><path d="M 1.59375 -19.125 L 10.234375 -19.125 C 11.640625 -19.125 12.832031 -18.628906 13.8125 -17.640625 C 14.800781 -16.648438 15.296875 -15.46875 15.296875 -14.09375 L 15.296875 -5.015625 C 15.296875 -3.628906 14.800781 -2.445312 13.8125 -1.46875 C 12.832031 -0.488281 11.640625 0 10.234375 0 L 1.59375 0 Z M 5.578125 -15.109375 L 5.578125 -3.984375 L 10.234375 -3.984375 C 10.523438 -3.984375 10.773438 -4.085938 10.984375 -4.296875 C 11.203125 -4.503906 11.3125 -4.742188 11.3125 -5.015625 L 11.3125 -14.09375 C 11.3125 -14.363281 11.203125 -14.597656 10.984375 -14.796875 C 10.773438 -15.003906 10.523438 -15.109375 10.234375 -15.109375 Z M 5.578125 -15.109375 "/></g></g></g><g fill="#ffffff" fill-opacity="1"><g transform="translate(201.022152, 134.757609)"><g><path d="M 1.15625 -6.75 L 4.234375 -6.75 C 4.578125 -6.75 4.929688 -6.671875 5.296875 -6.515625 C 5.941406 -6.273438 6.398438 -5.820312 6.671875 -5.15625 C 6.828125 -4.820312 6.90625 -4.484375 6.90625 -4.140625 L 6.90625 0 L 0.5625 0 L 0.5625 -2.078125 L 4.828125 -2.078125 L 4.828125 -4.140625 C 4.828125 -4.265625 4.726562 -4.425781 4.53125 -4.625 C 4.457031 -4.65625 4.359375 -4.671875 4.234375 -4.671875 L 1.15625 -4.671875 Z M 1.15625 -6.75 "/></g></g></g><g fill="#ffffff" fill-opacity="1"><g transform="translate(208.492711, 134.757609)"><g><path d="M 3.234375 -6.8125 L 4.59375 -6.8125 C 4.9375 -6.8125 5.289062 -6.726562 5.65625 -6.5625 C 5.957031 -6.457031 6.234375 -6.28125 6.484375 -6.03125 C 6.722656 -5.769531 6.921875 -5.472656 7.078125 -5.140625 C 7.203125 -4.835938 7.265625 -4.503906 7.265625 -4.140625 L 7.265625 0.359375 C 7.265625 0.722656 7.203125 1.054688 7.078125 1.359375 C 6.742188 2.035156 6.269531 2.507812 5.65625 2.78125 C 5.351562 2.894531 5.019531 2.953125 4.65625 2.953125 L 3.046875 2.953125 L 3.046875 0.890625 L 4.65625 0.890625 C 4.757812 0.890625 4.875 0.828125 5 0.703125 C 5.125 0.640625 5.1875 0.523438 5.1875 0.359375 L 5.1875 0 L 0.5625 0 L 0.5625 -4.140625 C 0.5625 -4.492188 0.640625 -4.828125 0.796875 -5.140625 C 0.910156 -5.460938 1.085938 -5.753906 1.328125 -6.015625 C 1.578125 -6.273438 1.851562 -6.457031 2.15625 -6.5625 C 2.519531 -6.726562 2.878906 -6.8125 3.234375 -6.8125 Z M 4.59375 -4.671875 L 3.234375 -4.671875 C 3.015625 -4.671875 2.851562 -4.59375 2.75 -4.4375 C 2.675781 -4.363281 2.640625 -4.265625 2.640625 -4.140625 L 2.640625 -2.078125 L 5.1875 -2.078125 L 5.1875 -4.140625 C 5.1875 -4.265625 5.160156 -4.363281 5.109375 -4.4375 C 4.953125 -4.59375 4.78125 -4.671875 4.59375 -4.671875 Z M 4.59375 -4.671875 "/></g></g></g><g fill="#ffffff" fill-opacity="1"><g transform="translate(216.31565, 134.757609)"><g><path d="M 1.15625 -6.75 L 4.234375 -6.75 C 4.578125 -6.75 4.929688 -6.671875 5.296875 -6.515625 C 5.878906 -6.304688 6.351562 -5.851562 6.71875 -5.15625 C 6.84375 -4.84375 6.90625 -4.503906 6.90625 -4.140625 L 6.90625 -2.078125 L 8.90625 -2.078125 L 8.90625 0 L 0.5625 0 L 0.5625 -2.078125 L 4.828125 -2.078125 L 4.828125 -4.140625 C 4.828125 -4.265625 4.726562 -4.425781 4.53125 -4.625 C 4.457031 -4.65625 4.359375 -4.671875 4.234375 -4.671875 L 1.15625 -4.671875 Z M 1.15625 -6.75 "/></g></g></g><g fill="#ffffff" fill-opacity="1"><g transform="translate(224.942033, 134.757609)"><g><path d="M 3.46875 0 L -0.28125 0 L -0.28125 -2.078125 L 3.46875 -2.078125 Z M 3.46875 0 "/></g></g></g><g fill="#ffffff" fill-opacity="1"><g transform="translate(228.127593, 134.757609)"><g><path d="M 3.46875 0 L -0.28125 0 L -0.28125 -2.078125 L 3.46875 -2.078125 Z M 3.46875 0 "/></g></g></g><g fill="#ffffff" fill-opacity="1"><g transform="translate(231.313153, 134.757609)"><g><path d="M 3.46875 0 L -0.28125 0 L -0.28125 -2.078125 L 3.46875 -2.078125 Z M 3.46875 0 "/></g></g></g><g fill="#ffffff" fill-opacity="1"><g transform="translate(234.498713, 134.757609)"><g><path d="M 2.5 -6.75 L 6.109375 -6.75 C 6.484375 -6.75 6.835938 -6.671875 7.171875 -6.515625 C 7.765625 -6.296875 8.238281 -5.84375 8.59375 -5.15625 C 8.707031 -4.832031 8.765625 -4.492188 8.765625 -4.140625 L 8.765625 0 L -0.28125 0 L -0.28125 -2.078125 L 6.6875 -2.078125 L 6.6875 -4.140625 C 6.6875 -4.234375 6.671875 -4.316406 6.640625 -4.390625 C 6.566406 -4.472656 6.488281 -4.550781 6.40625 -4.625 C 6.332031 -4.65625 6.234375 -4.671875 6.109375 -4.671875 L 1.65625 -4.671875 Z M 2.5 -6.75 "/></g></g></g><g fill="#ffffff" fill-opacity="1"><g transform="translate(243.829867, 134.757609)"><g/></g></g><g fill="#ffffff" fill-opacity="1"><g transform="translate(247.015427, 134.757609)"><g><path d="M 6.375 -2.078125 L 8.390625 -2.078125 L 8.390625 0 L 0.5625 0 L 0.5625 -2.078125 L 1.09375 -2.078125 L 1.09375 -8.828125 L 3.171875 -8.828125 L 3.171875 -2.078125 L 4.296875 -2.078125 L 4.296875 -10 L 6.375 -10 Z M 6.375 -2.078125 "/></g></g></g><g fill="#ffffff" fill-opacity="1"><g transform="translate(255.120276, 134.757609)"><g><path d="M 3.46875 0 L -0.28125 0 L -0.28125 -2.078125 L 3.46875 -2.078125 Z M 3.46875 0 "/></g></g></g><g fill="#ffffff" fill-opacity="1"><g transform="translate(258.305836, 134.757609)"><g><path d="M 3.46875 0 L -0.28125 0 L -0.28125 -2.078125 L 3.46875 -2.078125 Z M 3.46875 0 "/></g></g></g><g fill="#ffffff" fill-opacity="1"><g transform="translate(261.491396, 134.757609)"><g><path d="M 3.46875 0 L -0.28125 0 L -0.28125 -2.078125 L 3.46875 -2.078125 Z M 3.46875 0 "/></g></g></g><g fill="#ffffff" fill-opacity="1"><g transform="translate(264.676956, 134.757609)"><g><path d="M 3.46875 0 L -0.28125 0 L -0.28125 -2.078125 L 3.46875 -2.078125 Z M 3.46875 0 "/></g></g></g><g fill="#ffffff" fill-opacity="1"><g transform="translate(267.862516, 134.757609)"><g><path d="M 3.796875 0 L -0.28125 0 L -0.28125 -2.078125 L 1.65625 -2.078125 L 1.65625 -6.75 L 3.796875 -6.75 Z M 3.375 3.109375 L 1.53125 3.109375 L 1.53125 1.21875 L 3.375 1.21875 Z M 3.375 3.109375 "/></g></g></g><g fill="#ffffff" fill-opacity="1"><g transform="translate(272.217996, 134.757609)"><g/></g></g><g fill="#ffffff" fill-opacity="1"><g transform="translate(275.403556, 134.757609)"><g><path d="M 10.03125 -2.078125 L 12.046875 -2.078125 L 12.046875 0 L 3.234375 0 C 3.109375 0 3.007812 0.0195312 2.9375 0.0625 C 2.769531 0.132812 2.6875 0.289062 2.6875 0.53125 L 2.6875 2.953125 L 0.5625 2.953125 L 0.5625 0.59375 C 0.5625 -0.1875 0.78125 -0.832031 1.21875 -1.34375 C 1.65625 -1.832031 2.328125 -2.078125 3.234375 -2.078125 L 3.40625 -2.078125 L 3.40625 -4.140625 C 3.40625 -4.492188 3.460938 -4.828125 3.578125 -5.140625 C 3.734375 -5.472656 3.929688 -5.769531 4.171875 -6.03125 C 4.410156 -6.28125 4.6875 -6.457031 5 -6.5625 C 5.34375 -6.726562 5.679688 -6.8125 6.015625 -6.8125 L 10.03125 -6.8125 Z M 7.96875 -4.671875 L 6.015625 -4.671875 C 5.921875 -4.671875 5.84375 -4.65625 5.78125 -4.625 C 5.582031 -4.539062 5.484375 -4.378906 5.484375 -4.140625 L 5.484375 -2.078125 L 7.96875 -2.078125 Z M 7.96875 -4.671875 "/></g></g></g><g fill="#ffffff" fill-opacity="1"><g transform="translate(287.17321, 134.757609)"><g><path d="M 3.46875 0 L -0.28125 0 L -0.28125 -2.078125 L 3.46875 -2.078125 Z M 3.46875 0 "/></g></g></g><g fill="#ffffff" fill-opacity="1"><g transform="translate(290.35877, 134.757609)"><g><path d="M 3.46875 0 L -0.28125 0 L -0.28125 -2.078125 L 3.46875 -2.078125 Z M 3.46875 0 "/></g></g></g><g fill="#ffffff" fill-opacity="1"><g transform="translate(293.54433, 134.757609)"><g><path d="M 3.46875 0 L -0.28125 0 L -0.28125 -2.078125 L 3.46875 -2.078125 Z M 3.46875 0 "/></g></g></g><g fill="#ffffff" fill-opacity="1"><g transform="translate(296.72989, 134.757609)"><g><path d="M 3.75 -10 L 3.75 -2.609375 C 3.75 -2.523438 3.769531 -2.425781 3.8125 -2.3125 C 3.96875 -2.15625 4.117188 -2.078125 4.265625 -2.078125 L 5.75 -2.078125 L 5.75 0 L 4.265625 0 C 3.941406 0 3.609375 -0.078125 3.265625 -0.234375 C 3.078125 -0.304688 2.898438 -0.425781 2.734375 -0.59375 C 2.515625 -0.425781 2.316406 -0.304688 2.140625 -0.234375 C 1.816406 -0.078125 1.484375 0 1.140625 0 L -0.28125 0 L -0.28125 -2.078125 L 1.140625 -2.078125 C 1.378906 -2.078125 1.535156 -2.15625 1.609375 -2.3125 C 1.648438 -2.445312 1.671875 -2.546875 1.671875 -2.609375 L 1.671875 -10 Z M 3.75 -10 "/></g></g></g><g fill="#ffffff" fill-opacity="1"><g transform="translate(302.198905, 134.757609)"><g><path d="M 3.46875 0 L -0.28125 0 L -0.28125 -2.078125 L 3.46875 -2.078125 Z M 3.46875 0 "/></g></g></g><g fill="#ffffff" fill-opacity="1"><g transform="translate(305.384465, 134.757609)"><g><path d="M 3.46875 0 L -0.28125 0 L -0.28125 -2.078125 L 3.46875 -2.078125 Z M 3.46875 0 "/></g></g></g><g fill="#ffffff" fill-opacity="1"><g transform="translate(308.570025, 134.757609)"><g><path d="M 3.46875 0 L -0.28125 0 L -0.28125 -2.078125 L 3.46875 -2.078125 Z M 3.46875 0 "/></g></g></g><g fill="#ffffff" fill-opacity="1"><g transform="translate(311.755585, 134.757609)"><g><path d="M 4.34375 -6.75 L 5.28125 -6.75 C 5.644531 -6.75 5.976562 -6.691406 6.28125 -6.578125 C 6.96875 -6.253906 7.441406 -5.78125 7.703125 -5.15625 C 7.828125 -4.820312 7.890625 -4.46875 7.890625 -4.09375 L 7.890625 -4.03125 L 5.828125 -4.03125 L 5.828125 -4.09375 C 5.828125 -4.238281 5.78125 -4.378906 5.6875 -4.515625 C 5.582031 -4.617188 5.445312 -4.671875 5.28125 -4.671875 L 4.34375 -4.671875 C 4.1875 -4.671875 4.046875 -4.617188 3.921875 -4.515625 C 3.847656 -4.378906 3.8125 -4.238281 3.8125 -4.09375 L 3.8125 -2.078125 L 9.125 -2.078125 L 9.125 0 L -0.28125 0 L -0.28125 -2.078125 L 1.734375 -2.078125 L 1.734375 -4.09375 C 1.734375 -4.445312 1.789062 -4.800781 1.90625 -5.15625 C 2.175781 -5.78125 2.648438 -6.253906 3.328125 -6.578125 C 3.648438 -6.691406 3.988281 -6.75 4.34375 -6.75 Z M 4.34375 -6.75 "/></g></g></g><g fill="#ffffff" fill-opacity="1"><g transform="translate(320.593398, 134.757609)"><g><path d="M 3.46875 0 L -0.28125 0 L -0.28125 -2.078125 L 3.46875 -2.078125 Z M 3.46875 0 "/></g></g></g><g fill="#ffffff" fill-opacity="1"><g transform="translate(323.778958, 134.757609)"><g><path d="M 3.46875 0 L -0.28125 0 L -0.28125 -2.078125 L 3.46875 -2.078125 Z M 3.46875 0 "/></g></g></g><g fill="#ffffff" fill-opacity="1"><g transform="translate(326.964518, 134.757609)"><g><path d="M 3.46875 0 L -0.28125 0 L -0.28125 -2.078125 L 3.46875 -2.078125 Z M 3.46875 0 "/></g></g></g><g fill="#ffffff" fill-opacity="1"><g transform="translate(330.150078, 134.757609)"><g><path d="M 3.46875 0 L -0.28125 0 L -0.28125 -2.078125 L 3.46875 -2.078125 Z M 3.46875 0 "/></g></g></g><g fill="#ffffff" fill-opacity="1"><g transform="translate(333.335638, 134.757609)"><g><path d="M 2.625 -8.171875 L 0.796875 -8.171875 L 0.796875 -10.0625 L 2.625 -10.0625 Z M 4.9375 -8.171875 L 3.09375 -8.171875 L 3.09375 -10.0625 L 4.9375 -10.0625 Z M 4.96875 0 L -0.28125 0 L -0.28125 -2.078125 L 2.84375 -2.078125 L 2.84375 -6.75 L 4.96875 -6.75 Z M 4.96875 0 "/></g></g></g><g fill="#ffffff" fill-opacity="1"><g transform="translate(199.849159, 151.805353)"><g><path d="M 7.453125 -9.3125 L 7.453125 -2.453125 C 7.453125 -1.773438 7.210938 -1.195312 6.734375 -0.71875 C 6.253906 -0.238281 5.675781 0 5 0 L 3.234375 0 C 2.554688 0 1.976562 -0.238281 1.5 -0.71875 C 1.019531 -1.195312 0.78125 -1.773438 0.78125 -2.453125 L 0.78125 -9.3125 L 2.71875 -9.3125 L 2.71875 -2.453125 C 2.71875 -2.316406 2.765625 -2.195312 2.859375 -2.09375 C 2.960938 -1.988281 3.085938 -1.9375 3.234375 -1.9375 L 5 -1.9375 C 5.132812 -1.9375 5.253906 -1.988281 5.359375 -2.09375 C 5.460938 -2.195312 5.515625 -2.316406 5.515625 -2.453125 L 5.515625 -9.3125 Z M 7.453125 -9.3125 "/></g></g></g><g fill="#ffffff" fill-opacity="1"><g transform="translate(207.977069, 151.805353)"><g><path d="M 0.78125 -9.3125 L 5.046875 -9.3125 C 5.703125 -9.3125 6.269531 -9.066406 6.75 -8.578125 C 7.238281 -8.097656 7.484375 -7.519531 7.484375 -6.84375 L 7.484375 0 L 5.53125 0 L 5.53125 -6.84375 C 5.53125 -6.988281 5.484375 -7.113281 5.390625 -7.21875 C 5.296875 -7.320312 5.179688 -7.375 5.046875 -7.375 L 2.71875 -7.375 L 2.71875 0 L 0.78125 0 Z M 0.78125 -9.3125 "/></g></g></g><g fill="#ffffff" fill-opacity="1"><g transform="translate(216.144342, 151.805353)"><g><path d="M 2.71875 -9.3125 L 2.71875 -2.453125 C 2.71875 -2.316406 2.769531 -2.195312 2.875 -2.09375 C 2.976562 -1.988281 3.097656 -1.9375 3.234375 -1.9375 L 6.46875 -1.9375 L 6.484375 0 L 3.234375 0 C 2.566406 0 1.988281 -0.238281 1.5 -0.71875 C 1.019531 -1.195312 0.78125 -1.773438 0.78125 -2.453125 L 0.78125 -9.3125 Z M 2.71875 -9.3125 "/></g></g></g><g fill="#ffffff" fill-opacity="1"><g transform="translate(223.078336, 151.805353)"><g><path d="M 2.71875 0 L 0.78125 0 L 0.78125 -9.3125 L 2.71875 -9.3125 Z M 2.71875 0 "/></g></g></g><g fill="#ffffff" fill-opacity="1"><g transform="translate(226.469915, 151.805353)"><g><path d="M 6.9375 -9.3125 L 7.640625 -9.3125 C 8.316406 -9.3125 8.894531 -9.070312 9.375 -8.59375 C 9.863281 -8.113281 10.109375 -7.53125 10.109375 -6.84375 L 10.109375 0 L 8.15625 0 L 8.15625 -6.84375 C 8.15625 -6.988281 8.101562 -7.109375 8 -7.203125 C 7.90625 -7.304688 7.785156 -7.359375 7.640625 -7.359375 L 6.9375 -7.359375 C 6.800781 -7.359375 6.679688 -7.304688 6.578125 -7.203125 C 6.472656 -7.109375 6.421875 -6.988281 6.421875 -6.84375 L 6.421875 -3.40625 L 4.46875 -2.9375 L 4.46875 -6.84375 C 4.46875 -6.988281 4.414062 -7.109375 4.3125 -7.203125 C 4.207031 -7.304688 4.082031 -7.359375 3.9375 -7.359375 L 2.71875 -7.359375 L 2.71875 0 L 0.78125 0 L 0.78125 -9.3125 L 3.9375 -9.3125 C 4.46875 -9.3125 4.972656 -9.144531 5.453125 -8.8125 C 5.910156 -9.144531 6.40625 -9.3125 6.9375 -9.3125 Z M 6.9375 -9.3125 "/></g></g></g><g fill="#ffffff" fill-opacity="1"><g transform="translate(237.248077, 151.805353)"><g><path d="M 2.71875 0 L 0.78125 0 L 0.78125 -9.3125 L 2.71875 -9.3125 Z M 2.71875 0 "/></g></g></g><g fill="#ffffff" fill-opacity="1"><g transform="translate(240.639654, 151.805353)"><g><path d="M 7.140625 -7.375 L 4.953125 -7.375 L 4.953125 0 L 3 0 L 3 -7.375 L 0.78125 -7.375 L 0.78125 -9.3125 L 7.140625 -9.3125 Z M 7.140625 -7.375 "/></g></g></g><g fill="#ffffff" fill-opacity="1"><g transform="translate(248.308362, 151.805353)"><g><path d="M 6.46875 -7.390625 L 3.234375 -7.390625 C 3.085938 -7.390625 2.960938 -7.335938 2.859375 -7.234375 C 2.765625 -7.140625 2.71875 -7.015625 2.71875 -6.859375 L 2.71875 -4.875 L 5.578125 -5.625 L 5.578125 -3.625 L 2.71875 -2.875 L 2.71875 -2.46875 C 2.71875 -2.320312 2.769531 -2.195312 2.875 -2.09375 C 2.976562 -2 3.097656 -1.953125 3.234375 -1.953125 L 6.484375 -1.953125 L 6.484375 0 L 3.234375 0 C 2.554688 0 1.976562 -0.238281 1.5 -0.71875 C 1.019531 -1.195312 0.78125 -1.78125 0.78125 -2.46875 L 0.78125 -6.859375 C 0.78125 -7.535156 1.015625 -8.113281 1.484375 -8.59375 C 1.960938 -9.070312 2.546875 -9.3125 3.234375 -9.3125 L 6.46875 -9.3125 Z M 6.46875 -7.390625 "/></g></g></g><g fill="#ffffff" fill-opacity="1"><g transform="translate(255.478506, 151.805353)"><g><path d="M 0.78125 -9.3125 L 4.984375 -9.3125 C 5.671875 -9.3125 6.253906 -9.070312 6.734375 -8.59375 C 7.210938 -8.113281 7.453125 -7.535156 7.453125 -6.859375 L 7.453125 -2.4375 C 7.453125 -1.769531 7.210938 -1.195312 6.734375 -0.71875 C 6.253906 -0.238281 5.671875 0 4.984375 0 L 0.78125 0 Z M 2.71875 -7.359375 L 2.71875 -1.9375 L 4.984375 -1.9375 C 5.128906 -1.9375 5.253906 -1.988281 5.359375 -2.09375 C 5.460938 -2.195312 5.515625 -2.3125 5.515625 -2.4375 L 5.515625 -6.859375 C 5.515625 -6.992188 5.460938 -7.109375 5.359375 -7.203125 C 5.253906 -7.304688 5.128906 -7.359375 4.984375 -7.359375 Z M 2.71875 -7.359375 "/></g></g></g><g fill="#ffffff" fill-opacity="1"><g transform="translate(263.606414, 151.805353)"><g/></g></g><g fill="#ffffff" fill-opacity="1"><g transform="translate(266.630634, 151.805353)"><g><path d="M 5.953125 -4.390625 L 7.125 0 L 5.109375 0 L 4.21875 -3.28125 L 2.71875 -2.859375 L 2.71875 0 L 0.78125 0 L 0.78125 -9.3125 L 2.71875 -9.3125 L 2.71875 -4.875 L 4.171875 -5.265625 L 5.265625 -9.3125 L 7.3125 -9.3125 Z M 5.953125 -4.390625 "/></g></g></g><g fill="#ffffff" fill-opacity="1"><g transform="translate(274.391184, 151.805353)"><g><path d="M 0.78125 -9.3125 L 5.046875 -9.3125 C 5.703125 -9.3125 6.269531 -9.066406 6.75 -8.578125 C 7.238281 -8.097656 7.484375 -7.519531 7.484375 -6.84375 L 7.484375 0 L 5.53125 0 L 5.53125 -6.84375 C 5.53125 -6.988281 5.484375 -7.113281 5.390625 -7.21875 C 5.296875 -7.320312 5.179688 -7.375 5.046875 -7.375 L 2.71875 -7.375 L 2.71875 0 L 0.78125 0 Z M 0.78125 -9.3125 "/></g></g></g><g fill="#ffffff" fill-opacity="1"><g transform="translate(282.558456, 151.805353)"><g><path d="M 3.078125 -9.3125 L 4.84375 -9.3125 C 5.519531 -9.3125 6.097656 -9.066406 6.578125 -8.578125 C 7.054688 -8.097656 7.296875 -7.519531 7.296875 -6.84375 L 7.296875 -2.453125 C 7.296875 -1.773438 7.054688 -1.195312 6.578125 -0.71875 C 6.097656 -0.238281 5.519531 0 4.84375 0 L 3.078125 0 C 2.398438 0 1.816406 -0.238281 1.328125 -0.71875 C 0.847656 -1.195312 0.609375 -1.773438 0.609375 -2.453125 L 0.609375 -6.84375 C 0.609375 -7.519531 0.847656 -8.097656 1.328125 -8.578125 C 1.816406 -9.066406 2.398438 -9.3125 3.078125 -9.3125 Z M 4.84375 -7.359375 L 3.078125 -7.359375 C 2.929688 -7.359375 2.804688 -7.304688 2.703125 -7.203125 C 2.609375 -7.109375 2.5625 -6.988281 2.5625 -6.84375 L 2.5625 -2.453125 C 2.5625 -2.316406 2.609375 -2.195312 2.703125 -2.09375 C 2.804688 -1.988281 2.929688 -1.9375 3.078125 -1.9375 L 4.84375 -1.9375 C 4.976562 -1.9375 5.097656 -1.988281 5.203125 -2.09375 C 5.304688 -2.195312 5.359375 -2.316406 5.359375 -2.453125 L 5.359375 -6.84375 C 5.359375 -6.988281 5.304688 -7.109375 5.203125 -7.203125 C 5.097656 -7.304688 4.976562 -7.359375 4.84375 -7.359375 Z M 4.84375 -7.359375 "/></g></g></g><g fill="#ffffff" fill-opacity="1"><g transform="translate(290.384609, 151.805353)"><g><path d="M 10.09375 0 L 6.9375 0 C 6.375 0 5.875 -0.171875 5.4375 -0.515625 C 5 -0.171875 4.5 0 3.9375 0 L 3.234375 0 C 2.554688 0 1.976562 -0.238281 1.5 -0.71875 C 1.019531 -1.195312 0.78125 -1.78125 0.78125 -2.46875 L 0.78125 -9.3125 L 2.71875 -9.3125 L 2.71875 -2.46875 C 2.71875 -2.320312 2.765625 -2.195312 2.859375 -2.09375 C 2.960938 -1.988281 3.085938 -1.9375 3.234375 -1.9375 L 3.9375 -1.9375 C 4.082031 -1.9375 4.207031 -1.988281 4.3125 -2.09375 C 4.414062 -2.195312 4.46875 -2.320312 4.46875 -2.46875 L 4.46875 -5.875 L 6.421875 -6.359375 L 6.421875 -2.46875 C 6.421875 -2.320312 6.46875 -2.195312 6.5625 -2.09375 C 6.664062 -1.988281 6.789062 -1.9375 6.9375 -1.9375 L 8.15625 -1.9375 L 8.15625 -9.3125 L 10.09375 -9.3125 Z M 10.09375 0 "/></g></g></g><g fill="#ffffff" fill-opacity="1"><g transform="translate(301.149652, 151.805353)"><g><path d="M 2.71875 -9.3125 L 2.71875 -2.453125 C 2.71875 -2.316406 2.769531 -2.195312 2.875 -2.09375 C 2.976562 -1.988281 3.097656 -1.9375 3.234375 -1.9375 L 6.46875 -1.9375 L 6.484375 0 L 3.234375 0 C 2.566406 0 1.988281 -0.238281 1.5 -0.71875 C 1.019531 -1.195312 0.78125 -1.773438 0.78125 -2.453125 L 0.78125 -9.3125 Z M 2.71875 -9.3125 "/></g></g></g><g fill="#ffffff" fill-opacity="1"><g transform="translate(308.083645, 151.805353)"><g><path d="M 6.46875 -7.390625 L 3.234375 -7.390625 C 3.085938 -7.390625 2.960938 -7.335938 2.859375 -7.234375 C 2.765625 -7.140625 2.71875 -7.015625 2.71875 -6.859375 L 2.71875 -4.875 L 5.578125 -5.625 L 5.578125 -3.625 L 2.71875 -2.875 L 2.71875 -2.46875 C 2.71875 -2.320312 2.769531 -2.195312 2.875 -2.09375 C 2.976562 -2 3.097656 -1.953125 3.234375 -1.953125 L 6.484375 -1.953125 L 6.484375 0 L 3.234375 0 C 2.554688 0 1.976562 -0.238281 1.5 -0.71875 C 1.019531 -1.195312 0.78125 -1.78125 0.78125 -2.46875 L 0.78125 -6.859375 C 0.78125 -7.535156 1.015625 -8.113281 1.484375 -8.59375 C 1.960938 -9.070312 2.546875 -9.3125 3.234375 -9.3125 L 6.46875 -9.3125 Z M 6.46875 -7.390625 "/></g></g></g><g fill="#ffffff" fill-opacity="1"><g transform="translate(315.253789, 151.805353)"><g><path d="M 0.78125 -9.3125 L 4.984375 -9.3125 C 5.671875 -9.3125 6.253906 -9.070312 6.734375 -8.59375 C 7.210938 -8.113281 7.453125 -7.535156 7.453125 -6.859375 L 7.453125 -2.4375 C 7.453125 -1.769531 7.210938 -1.195312 6.734375 -0.71875 C 6.253906 -0.238281 5.671875 0 4.984375 0 L 0.78125 0 Z M 2.71875 -7.359375 L 2.71875 -1.9375 L 4.984375 -1.9375 C 5.128906 -1.9375 5.253906 -1.988281 5.359375 -2.09375 C 5.460938 -2.195312 5.515625 -2.3125 5.515625 -2.4375 L 5.515625 -6.859375 C 5.515625 -6.992188 5.460938 -7.109375 5.359375 -7.203125 C 5.253906 -7.304688 5.128906 -7.359375 4.984375 -7.359375 Z M 2.71875 -7.359375 "/></g></g></g><g fill="#ffffff" fill-opacity="1"><g transform="translate(323.381697, 151.805353)"><g><path d="M 3.21875 -9.3125 L 4.953125 -9.3125 C 5.617188 -9.3125 6.195312 -9.070312 6.6875 -8.59375 C 7.175781 -8.113281 7.421875 -7.535156 7.421875 -6.859375 L 7.421875 -6.203125 L 5.484375 -6.1875 L 5.484375 -6.859375 C 5.484375 -7.015625 5.429688 -7.140625 5.328125 -7.234375 C 5.222656 -7.335938 5.097656 -7.390625 4.953125 -7.390625 L 3.21875 -7.390625 C 3.070312 -7.390625 2.945312 -7.335938 2.84375 -7.234375 C 2.75 -7.128906 2.703125 -7.003906 2.703125 -6.859375 L 2.703125 -2.453125 C 2.703125 -2.316406 2.75 -2.195312 2.84375 -2.09375 C 2.945312 -1.988281 3.070312 -1.9375 3.21875 -1.9375 L 4.953125 -1.9375 C 5.097656 -1.9375 5.222656 -1.984375 5.328125 -2.078125 C 5.429688 -2.171875 5.484375 -2.285156 5.484375 -2.421875 L 5.484375 -2.9375 L 4.078125 -2.59375 L 4.078125 -4.59375 L 7.421875 -5.4375 L 7.421875 -2.4375 C 7.421875 -1.769531 7.175781 -1.195312 6.6875 -0.71875 C 6.195312 -0.238281 5.617188 0 4.953125 0 L 3.21875 0 C 2.539062 0 1.960938 -0.238281 1.484375 -0.71875 C 1.015625 -1.195312 0.78125 -1.773438 0.78125 -2.453125 L 0.78125 -6.859375 C 0.78125 -7.535156 1.015625 -8.113281 1.484375 -8.59375 C 1.960938 -9.070312 2.539062 -9.3125 3.21875 -9.3125 Z M 3.21875 -9.3125 "/></g></g></g><g fill="#ffffff" fill-opacity="1"><g transform="translate(331.483366, 151.805353)"><g><path d="M 6.46875 -7.390625 L 3.234375 -7.390625 C 3.085938 -7.390625 2.960938 -7.335938 2.859375 -7.234375 C 2.765625 -7.140625 2.71875 -7.015625 2.71875 -6.859375 L 2.71875 -4.875 L 5.578125 -5.625 L 5.578125 -3.625 L 2.71875 -2.875 L 2.71875 -2.46875 C 2.71875 -2.320312 2.769531 -2.195312 2.875 -2.09375 C 2.976562 -2 3.097656 -1.953125 3.234375 -1.953125 L 6.484375 -1.953125 L 6.484375 0 L 3.234375 0 C 2.554688 0 1.976562 -0.238281 1.5 -0.71875 C 1.019531 -1.195312 0.78125 -1.78125 0.78125 -2.46875 L 0.78125 -6.859375 C 0.78125 -7.535156 1.015625 -8.113281 1.484375 -8.59375 C 1.960938 -9.070312 2.546875 -9.3125 3.234375 -9.3125 L 6.46875 -9.3125 Z M 6.46875 -7.390625 "/></g></g></g><g fill="#ffffff" fill-opacity="1"><g transform="translate(145.921047, 73.676166)"><g><path d="M 13.109375 -3.3125 L 9.6875 -2.453125 L 8.265625 -8.078125 C 8.054688 -7.929688 7.769531 -7.8125 7.40625 -7.71875 L 4.3125 -6.9375 C 3.125 -6.632812 1.992188 -6.800781 0.921875 -7.4375 C -0.140625 -8.082031 -0.828125 -9.003906 -1.140625 -10.203125 L -2.78125 -16.703125 L 0.625 -17.5625 L 2.265625 -11.0625 C 2.328125 -10.820312 2.472656 -10.628906 2.703125 -10.484375 C 2.929688 -10.347656 3.175781 -10.3125 3.4375 -10.375 L 6.53125 -11.15625 C 6.78125 -11.21875 6.96875 -11.363281 7.09375 -11.59375 C 7.21875 -11.832031 7.25 -12.070312 7.1875 -12.3125 L 5.546875 -18.8125 L 8.96875 -19.671875 Z M 13.109375 -3.3125 "/></g></g></g><g fill="#ffffff" fill-opacity="1"><g transform="translate(121.441647, 88.21935)"><g><path d="M 11.875 -6.40625 L 8.78125 -4.75 L 6.03125 -9.84375 C 5.875 -9.65625 5.625 -9.472656 5.28125 -9.296875 L 2.46875 -7.765625 C 1.394531 -7.191406 0.265625 -7.082031 -0.921875 -7.4375 C -2.117188 -7.800781 -3.007812 -8.523438 -3.59375 -9.609375 L -6.765625 -15.5 L -3.6875 -17.15625 L -0.515625 -11.265625 C -0.390625 -11.046875 -0.195312 -10.894531 0.0625 -10.8125 C 0.320312 -10.738281 0.5625 -10.757812 0.78125 -10.875 L 3.59375 -12.40625 C 3.8125 -12.519531 3.957031 -12.707031 4.03125 -12.96875 C 4.101562 -13.226562 4.078125 -13.46875 3.953125 -13.6875 L 0.78125 -19.578125 L 3.875 -21.234375 Z M 11.875 -6.40625 "/></g></g></g><g fill="#ffffff" fill-opacity="1"><g transform="translate(100.545132, 109.895529)"><g><path d="M 5.96875 -4.5625 L 3.15625 -2.421875 L -4.96875 -13.046875 L -7.015625 -11.484375 L -7.75 -12.421875 C -8.050781 -12.828125 -8.148438 -13.390625 -8.046875 -14.109375 C -7.953125 -14.835938 -7.632812 -15.410156 -7.09375 -15.828125 L -4.28125 -17.96875 Z M 5.96875 -4.5625 "/></g></g></g><g fill="#ffffff" fill-opacity="1"><g transform="translate(214.014912, 76.820222)"><g><path d="M 2.203125 -12.890625 L 8.109375 -12.890625 C 8.753906 -12.890625 9.425781 -12.738281 10.125 -12.4375 C 11.238281 -12.039062 12.144531 -11.175781 12.84375 -9.84375 C 13.070312 -9.257812 13.1875 -8.613281 13.1875 -7.90625 L 13.1875 -3.953125 L 17.015625 -3.953125 L 17.015625 0 L 1.078125 0 L 1.078125 -3.953125 L 9.234375 -3.953125 L 9.234375 -7.90625 C 9.234375 -8.144531 9.046875 -8.453125 8.671875 -8.828125 C 8.523438 -8.898438 8.335938 -8.9375 8.109375 -8.9375 L 2.203125 -8.9375 Z M 2.203125 -12.890625 "/></g></g></g><g fill="#ffffff" fill-opacity="1"><g transform="translate(230.484201, 76.820222)"><g><path d="M 6.625 0 L -0.53125 0 L -0.53125 -3.953125 L 6.625 -3.953125 Z M 6.625 0 "/></g></g></g><g fill="#ffffff" fill-opacity="1"><g transform="translate(236.565999, 76.820222)"><g><path d="M 6.625 0 L -0.53125 0 L -0.53125 -3.953125 L 6.625 -3.953125 Z M 6.625 0 "/></g></g></g><g fill="#ffffff" fill-opacity="1"><g transform="translate(242.647798, 76.820222)"><g><path d="M 7.375 -3.953125 L 11.015625 -3.953125 L 11.015625 0 L -0.53125 0 L -0.53125 -3.953125 L 3.3125 -3.953125 L 3.3125 -12.890625 L 7.375 -12.890625 Z M 4.734375 5.875 L 1.21875 5.875 L 1.21875 2.265625 L 4.734375 2.265625 Z M 9.125 5.875 L 5.625 5.875 L 5.625 2.265625 L 9.125 2.265625 Z M 9.125 5.875 "/></g></g></g><g fill="#ffffff" fill-opacity="1"><g transform="translate(253.116025, 76.820222)"><g><path d="M 6.625 0 L -0.53125 0 L -0.53125 -3.953125 L 6.625 -3.953125 Z M 6.625 0 "/></g></g></g><g fill="#ffffff" fill-opacity="1"><g transform="translate(259.197823, 76.820222)"><g><path d="M 6.625 0 L -0.53125 0 L -0.53125 -3.953125 L 6.625 -3.953125 Z M 6.625 0 "/></g></g></g><g fill="#ffffff" fill-opacity="1"><g transform="translate(265.279622, 76.820222)"><g><path d="M 11.0625 -15.5625 L 7.5625 -15.5625 L 7.5625 -19.171875 L 11.0625 -19.171875 Z M 8.375 -12.890625 L 10.3125 -12.890625 C 10.988281 -12.890625 11.625 -12.78125 12.21875 -12.5625 C 12.8125 -12.28125 13.34375 -11.90625 13.8125 -11.4375 C 14.863281 -10.3125 15.390625 -9.132812 15.390625 -7.90625 L 15.390625 -3.953125 L 19.109375 -3.953125 L 19.109375 0 L -0.53125 0 L -0.53125 -3.953125 L 3.28125 -3.953125 L 3.28125 -7.90625 C 3.28125 -8.613281 3.398438 -9.257812 3.640625 -9.84375 C 4.265625 -11.050781 5.171875 -11.957031 6.359375 -12.5625 C 6.941406 -12.78125 7.613281 -12.890625 8.375 -12.890625 Z M 10.3125 -8.9375 L 8.375 -8.9375 C 8.132812 -8.9375 7.945312 -8.898438 7.8125 -8.828125 C 7.425781 -8.648438 7.234375 -8.34375 7.234375 -7.90625 L 7.234375 -3.953125 L 11.328125 -3.953125 L 11.328125 -7.90625 C 11.328125 -8.144531 11.285156 -8.335938 11.203125 -8.484375 C 11.078125 -8.785156 10.78125 -8.9375 10.3125 -8.9375 Z M 10.3125 -8.9375 "/></g></g></g><g fill="#ffffff" fill-opacity="1"><g transform="translate(283.847945, 76.820222)"><g><path d="M 6.625 0 L -0.53125 0 L -0.53125 -3.953125 L 6.625 -3.953125 Z M 6.625 0 "/></g></g></g><g fill="#ffffff" fill-opacity="1"><g transform="translate(289.929743, 76.820222)"><g><path d="M 6.625 0 L -0.53125 0 L -0.53125 -3.953125 L 6.625 -3.953125 Z M 6.625 0 "/></g></g></g><g fill="#ffffff" fill-opacity="1"><g transform="translate(296.011542, 76.820222)"><g><path d="M 16.0625 0 L -0.53125 0 L -0.53125 -3.953125 L 3.3125 -3.953125 L 3.3125 -7.90625 C 3.3125 -8.59375 3.421875 -9.234375 3.640625 -9.828125 C 3.941406 -10.453125 4.316406 -11.015625 4.765625 -11.515625 C 5.242188 -12.003906 5.773438 -12.347656 6.359375 -12.546875 C 7.003906 -12.847656 7.679688 -13 8.390625 -13 L 16.0625 -13 Z M 12 -8.9375 L 8.390625 -8.9375 C 8.015625 -8.9375 7.675781 -8.785156 7.375 -8.484375 C 7.300781 -8.359375 7.265625 -8.164062 7.265625 -7.90625 L 7.265625 -3.953125 L 12 -3.953125 Z M 12 -8.9375 "/></g></g></g><g fill="#ffffff" fill-opacity="1"><g transform="translate(300.600841, 65.92412)"><g><path d="M 5.125 -24.015625 C 3.167969 -24.015625 2.515625 -22.535156 2.515625 -21.320312 C 2.515625 -21.054688 2.546875 -20.789062 2.605469 -20.550781 L 0.296875 -20.226562 L 0.296875 -18.152344 L 7.523438 -19.191406 C 7.667969 -19.960938 7.699219 -20.816406 7.699219 -21.320312 C 7.699219 -22.980469 6.691406 -24.015625 5.125 -24.015625 Z M 4.351562 -20.816406 C 4.292969 -20.964844 4.265625 -21.113281 4.265625 -21.261719 C 4.265625 -21.648438 4.589844 -21.972656 4.976562 -21.972656 C 5.390625 -21.972656 5.65625 -21.675781 5.65625 -21.320312 C 5.65625 -21.203125 5.65625 -21.054688 5.625 -20.996094 Z M 4.351562 -20.816406 "/></g></g></g><g fill="#ffffff" fill-opacity="1"><g transform="translate(17.361456, 140.974683)"><g><path d="M 6.625 -19.125 L 10.5625 -19.125 C 11.957031 -19.125 13.148438 -18.628906 14.140625 -17.640625 C 15.128906 -16.648438 15.625 -15.46875 15.625 -14.09375 L 15.625 -11.28125 C 15.625 -9.78125 15.078125 -8.597656 13.984375 -7.734375 C 13.191406 -7.117188 12.3125 -6.8125 11.34375 -6.8125 C 11.09375 -6.8125 10.710938 -6.867188 10.203125 -6.984375 L 6.46875 -7.890625 C 6.21875 -7.859375 6.003906 -7.738281 5.828125 -7.53125 C 5.660156 -7.320312 5.578125 -7.070312 5.578125 -6.78125 L 5.578125 -3.984375 L 15.546875 -3.984375 L 15.546875 0 L 1.59375 0 L 1.59375 -6.78125 C 1.59375 -8.207031 2.082031 -9.410156 3.0625 -10.390625 C 4.050781 -11.378906 5.238281 -11.875 6.625 -11.875 C 6.769531 -11.875 6.976562 -11.847656 7.25 -11.796875 L 10.9375 -10.9375 C 10.96875 -10.9375 11.03125 -10.914062 11.125 -10.875 C 11.21875 -10.84375 11.289062 -10.828125 11.34375 -10.828125 C 11.414062 -10.828125 11.476562 -10.851562 11.53125 -10.90625 C 11.601562 -10.925781 11.640625 -11.050781 11.640625 -11.28125 L 11.640625 -14.09375 C 11.640625 -14.375 11.53125 -14.617188 11.3125 -14.828125 C 11.09375 -15.035156 10.84375 -15.140625 10.5625 -15.140625 L 6.59375 -15.140625 C 6.3125 -15.140625 6.070312 -15.035156 5.875 -14.828125 C 5.675781 -14.617188 5.578125 -14.375 5.578125 -14.09375 L 5.578125 -13.3125 L 1.59375 -13.3125 L 1.59375 -14.09375 C 1.59375 -15.414062 2.050781 -16.5625 2.96875 -17.53125 C 3.882812 -18.5 4.992188 -19.03125 6.296875 -19.125 Z M 6.625 -19.125 "/></g></g></g><g fill="#ffffff" fill-opacity="1"><g transform="translate(44.228913, 140.974683)"><g><path d="M 6.65625 -19.125 L 10.296875 -19.125 C 11.671875 -19.125 12.851562 -18.628906 13.84375 -17.640625 C 14.832031 -16.648438 15.328125 -15.457031 15.328125 -14.0625 L 15.328125 -5.03125 C 15.328125 -3.65625 14.832031 -2.472656 13.84375 -1.484375 C 12.851562 -0.492188 11.671875 0 10.296875 0 L 6.65625 0 C 5.269531 0 4.078125 -0.492188 3.078125 -1.484375 C 2.085938 -2.472656 1.59375 -3.65625 1.59375 -5.03125 L 1.59375 -14.0625 C 1.59375 -15.457031 2.085938 -16.648438 3.078125 -17.640625 C 4.078125 -18.628906 5.269531 -19.125 6.65625 -19.125 Z M 10.296875 -15.140625 L 6.65625 -15.140625 C 6.351562 -15.140625 6.097656 -15.03125 5.890625 -14.8125 C 5.679688 -14.601562 5.578125 -14.351562 5.578125 -14.0625 L 5.578125 -10.640625 L 11.34375 -12.171875 L 11.34375 -14.0625 C 11.34375 -14.351562 11.238281 -14.601562 11.03125 -14.8125 C 10.820312 -15.03125 10.578125 -15.140625 10.296875 -15.140625 Z M 5.578125 -6.46875 L 5.578125 -5.03125 C 5.578125 -4.75 5.679688 -4.503906 5.890625 -4.296875 C 6.109375 -4.085938 6.363281 -3.984375 6.65625 -3.984375 L 10.296875 -3.984375 C 10.578125 -3.984375 10.820312 -4.085938 11.03125 -4.296875 C 11.238281 -4.503906 11.34375 -4.75 11.34375 -5.03125 L 11.34375 -8.03125 Z M 5.578125 -6.46875 "/></g></g></g><g fill="#ffffff" fill-opacity="1"><g transform="translate(70.800095, 140.974683)"><g><path d="M 6.625 -19.125 L 10.5625 -19.125 C 11.957031 -19.125 13.148438 -18.628906 14.140625 -17.640625 C 15.128906 -16.648438 15.625 -15.46875 15.625 -14.09375 L 15.625 -11.28125 C 15.625 -9.78125 15.078125 -8.597656 13.984375 -7.734375 C 13.191406 -7.117188 12.3125 -6.8125 11.34375 -6.8125 C 11.09375 -6.8125 10.710938 -6.867188 10.203125 -6.984375 L 6.46875 -7.890625 C 6.21875 -7.859375 6.003906 -7.738281 5.828125 -7.53125 C 5.660156 -7.320312 5.578125 -7.070312 5.578125 -6.78125 L 5.578125 -3.984375 L 15.546875 -3.984375 L 15.546875 0 L 1.59375 0 L 1.59375 -6.78125 C 1.59375 -8.207031 2.082031 -9.410156 3.0625 -10.390625 C 4.050781 -11.378906 5.238281 -11.875 6.625 -11.875 C 6.769531 -11.875 6.976562 -11.847656 7.25 -11.796875 L 10.9375 -10.9375 C 10.96875 -10.9375 11.03125 -10.914062 11.125 -10.875 C 11.21875 -10.84375 11.289062 -10.828125 11.34375 -10.828125 C 11.414062 -10.828125 11.476562 -10.851562 11.53125 -10.90625 C 11.601562 -10.925781 11.640625 -11.050781 11.640625 -11.28125 L 11.640625 -14.09375 C 11.640625 -14.375 11.53125 -14.617188 11.3125 -14.828125 C 11.09375 -15.035156 10.84375 -15.140625 10.5625 -15.140625 L 6.59375 -15.140625 C 6.3125 -15.140625 6.070312 -15.035156 5.875 -14.828125 C 5.675781 -14.617188 5.578125 -14.375 5.578125 -14.09375 L 5.578125 -13.3125 L 1.59375 -13.3125 L 1.59375 -14.09375 C 1.59375 -15.414062 2.050781 -16.5625 2.96875 -17.53125 C 3.882812 -18.5 4.992188 -19.03125 6.296875 -19.125 Z M 6.625 -19.125 "/></g></g></g><g fill="#ffffff" fill-opacity="1"><g transform="translate(97.667549, 140.974683)"><g><path d="M 15.328125 0 L 11.34375 0 L 11.34375 -6.578125 C 11.070312 -6.484375 10.722656 -6.4375 10.296875 -6.4375 L 6.65625 -6.4375 C 5.269531 -6.4375 4.078125 -6.929688 3.078125 -7.921875 C 2.085938 -8.921875 1.59375 -10.125 1.59375 -11.53125 L 1.59375 -19.125 L 5.578125 -19.125 L 5.578125 -11.53125 C 5.578125 -11.238281 5.679688 -10.984375 5.890625 -10.765625 C 6.109375 -10.554688 6.363281 -10.453125 6.65625 -10.453125 L 10.296875 -10.453125 C 10.578125 -10.453125 10.820312 -10.554688 11.03125 -10.765625 C 11.238281 -10.984375 11.34375 -11.238281 11.34375 -11.53125 L 11.34375 -19.125 L 15.328125 -19.125 Z M 15.328125 0 "/></g></g></g></svg>